<svg width="24" height="24" viewBox="0 0 24 24" fill="none" xmlns="http://www.w3.org/2000/svg">
<g id="&#231;&#129;&#190;&#229;&#136;&#135;&#231;&#174;&#161;&#231;&#144;&#134;-24PX-&#233;&#157;&#162;&#230;&#128;&#167;">
<path id="Union" d="M11.5696 2.17808C11.8392 2.3649 12 2.67203 12 3.00001V4.48262L15.6375 3.068C15.9452 2.94835 16.2921 2.98825 16.5646 3.17464C16.8371 3.36103 17 3.66988 17 4.00001V6.09376L19.6376 5.06805C19.9452 4.9484 20.2921 4.9883 20.5646 5.17469C20.8371 5.36108 21 5.66993 21 6.00005V8.50005C21 9.05234 20.5523 9.50005 20 9.50005C19.4477 9.50005 19 9.05234 19 8.50005V7.4619L12 10.1841V15.5001C12 15.8401 11.8272 16.1568 11.5414 16.3408C11.2555 16.5249 10.8957 16.5511 10.5862 16.4104L5.08619 13.9104C4.58341 13.6818 4.3611 13.089 4.58964 12.5862C4.81818 12.0834 5.41103 11.8611 5.91381 12.0896L6 12.1288V7.50005C6 7.08764 6.25318 6.71753 6.63755 6.56805L10 5.26041V4.44301L4 6.69301V16.382L11.0251 19.8946L12.8501 19.0835L13.8868 20.8113L11.4061 21.9139C11.1331 22.0352 10.8201 22.0281 10.5528 21.8945L2.55279 17.8945C2.214 17.7251 2 17.3788 2 17.0001V6.00001C2 5.58316 2.25857 5.21004 2.64888 5.06368L10.6489 2.06368C10.956 1.94852 11.3 1.99126 11.5696 2.17808ZM8 13.0379L10 13.947V9.50005C10 9.08764 10.2532 8.71753 10.6376 8.56805L15 6.87154V5.46186L8 8.18412V13.0379ZM13.1524 14.4731C14.254 14.2005 14.9084 13.0671 14.5936 11.9768L14.3955 11.2907C14.8348 10.9083 15.3348 10.5981 15.8783 10.3779L16.3771 10.9028C17.1654 11.7323 18.4877 11.7325 19.2762 10.9033L19.7693 10.3847C20.3139 10.6076 20.8144 10.9208 21.2535 11.3065L21.0674 11.9374C20.7435 13.0349 21.4048 14.18 22.5173 14.4479L23.0563 14.5777C23.1054 14.878 23.1309 15.1865 23.1309 15.5013C23.1309 15.8021 23.1076 16.0973 23.0627 16.385L22.479 16.5294C21.3774 16.802 20.723 17.9354 21.0378 19.0257L21.2358 19.7116C20.7965 20.094 20.2966 20.4042 19.753 20.6245L19.2543 20.0997C18.466 19.2702 17.1437 19.2699 16.3552 20.0992L15.8619 20.6179C15.3173 20.3951 14.8169 20.082 14.3777 19.6963L14.564 19.0651C14.8879 17.9675 14.2266 16.8225 13.114 16.5546L12.5746 16.4247C12.5255 16.1245 12.5 15.816 12.5 15.5013C12.5 15.2005 12.5233 14.9053 12.5682 14.6176L13.1524 14.4731ZM16.3658 15.5013C16.3658 16.3297 17.0148 17.0013 17.8155 17.0013C18.6161 17.0013 19.2651 16.3297 19.2651 15.5013C19.2651 14.6729 18.6161 14.0013 17.8155 14.0013C17.0148 14.0013 16.3658 14.6729 16.3658 15.5013Z" fill="currentColor"/>
</g>
</svg>
