<svg width="24" height="24" viewBox="0 0 24 24" fill="none" xmlns="http://www.w3.org/2000/svg">
<g id="&#231;&#129;&#190;&#229;&#164;&#135;&#232;&#191;&#144;&#231;&#187;&#180;-24PX-&#231;&#186;&#191;&#230;&#128;&#167;">
<path id="Union" fill-rule="evenodd" clip-rule="evenodd" d="M11.75 3C11.75 2.75402 11.6294 2.52367 11.4272 2.38356C11.225 2.24345 10.967 2.21139 10.7367 2.29776L2.73666 5.29776C2.44393 5.40753 2.25 5.68737 2.25 6V17.0001C2.25 17.2841 2.4105 17.5438 2.66459 17.6709L10.6646 21.6709C10.865 21.7711 11.0998 21.7764 11.3046 21.6854L20.3046 17.6854C20.5754 17.565 20.75 17.2964 20.75 17.0001V14.5001H20.6264C21.4242 14.2372 22 13.4859 22 12.6001C22 11.4955 21.1046 10.6001 20 10.6001C18.8954 10.6001 18 11.4955 18 12.6001C18 13.4859 18.5758 14.2372 19.3736 14.5001H19.25V16.5126L11.0188 20.1709L3.75 16.5365V6.51975L10.25 4.08225V5.43143L6.72816 6.80105C6.43989 6.91316 6.25 7.19074 6.25 7.50005V12.5171L5.81036 12.3172C5.43327 12.1458 4.98863 12.3126 4.81723 12.6896C4.64582 13.0667 4.81256 13.5114 5.18964 13.6828L10.6896 16.1828C10.9218 16.2883 11.1916 16.2687 11.406 16.1306C11.6204 15.9926 11.75 15.7551 11.75 15.5001V10.0131L19.25 7.09644V8.50005C19.25 8.91427 19.5858 9.25005 20 9.25005C20.4142 9.25005 20.75 8.91427 20.75 8.50005V6.00005C20.75 5.75246 20.6278 5.52082 20.4235 5.38103C20.2191 5.24124 19.9589 5.21131 19.7282 5.30105L16.75 6.45922V4C16.75 3.75241 16.6278 3.52077 16.4235 3.38098C16.2191 3.24119 15.9589 3.21126 15.7282 3.301L11.75 4.84809V3ZM10.25 14.3353L7.75 13.1989V8.0131L15.25 5.09639V7H15.3594L10.7282 8.80105C10.4399 8.91316 10.25 9.19074 10.25 9.50005V14.3353ZM20.5 12.6001C20.5 12.8762 20.2761 13.1001 20 13.1001C19.7239 13.1001 19.5 12.8762 19.5 12.6001C19.5 12.324 19.7239 12.1001 20 12.1001C20.2761 12.1001 20.5 12.324 20.5 12.6001Z" fill="currentColor"/>
</g>
</svg>
