<svg width="24" height="24" viewBox="0 0 24 24" fill="none" xmlns="http://www.w3.org/2000/svg">
<g id="&#231;&#129;&#190;&#229;&#136;&#135;&#231;&#174;&#161;&#231;&#144;&#134;-24PX-&#231;&#186;&#191;&#230;&#128;&#167;">
<path id="Union" d="M11.4272 2.38356C11.6294 2.52367 11.75 2.75402 11.75 3V4.84809L15.7282 3.301C15.9589 3.21126 16.2191 3.24119 16.4235 3.38098C16.6278 3.52077 16.75 3.75241 16.75 4V6.45922L19.7282 5.30105C19.9589 5.21131 20.2191 5.24124 20.4235 5.38103C20.6278 5.52082 20.75 5.75246 20.75 6.00005V8.50005C20.75 8.91427 20.4142 9.25005 20 9.25005C19.5858 9.25005 19.25 8.91427 19.25 8.50005V7.09644L11.75 10.0131V15.5001C11.75 15.7551 11.6204 15.9926 11.406 16.1306C11.1916 16.2687 10.9218 16.2883 10.6896 16.1828L5.18964 13.6828C4.81256 13.5114 4.64582 13.0667 4.81723 12.6896C4.98863 12.3126 5.43327 12.1458 5.81036 12.3172L6.25 12.5171V7.50005C6.25 7.19074 6.43989 6.91316 6.72816 6.80105L10.25 5.43143V4.08225L3.75 6.51975V16.5365L11.0188 20.1709L12.9797 19.2995L13.7572 20.5954L11.3046 21.6854C11.0998 21.7764 10.865 21.7711 10.6646 21.6709L2.66459 17.6709C2.4105 17.5438 2.25 17.2841 2.25 17.0001V6C2.25 5.68737 2.44393 5.40753 2.73666 5.29776L10.7367 2.29776C10.967 2.21139 11.225 2.24345 11.4272 2.38356ZM7.75 13.1989L10.25 14.3353V9.50005C10.25 9.19074 10.4399 8.91316 10.7282 8.80105L15.3594 7H15.25V5.09639L7.75 8.0131V13.1989ZM13.1524 14.4731C14.254 14.2005 14.9084 13.0671 14.5936 11.9768L14.3955 11.2907C14.8348 10.9083 15.3348 10.5981 15.8783 10.3779L16.3771 10.9028C17.1654 11.7323 18.4877 11.7325 19.2762 10.9033L19.7693 10.3847C20.3139 10.6076 20.8144 10.9208 21.2535 11.3065L21.0674 11.9374C20.7435 13.0349 21.4048 14.18 22.5173 14.4479L23.0563 14.5777C23.1054 14.878 23.1309 15.1865 23.1309 15.5013C23.1309 15.8021 23.1076 16.0973 23.0627 16.385L22.479 16.5294C21.3774 16.802 20.723 17.9354 21.0378 19.0256L21.2358 19.7115C20.7965 20.094 20.2966 20.4042 19.753 20.6245L19.2543 20.0997C18.466 19.2702 17.1437 19.2699 16.3552 20.0992L15.8619 20.6179C15.3173 20.3951 14.8169 20.082 14.3777 19.6963L14.564 19.0651C14.8879 17.9675 14.2266 16.8225 13.114 16.5546L12.5746 16.4247C12.5255 16.1245 12.5 15.816 12.5 15.5013C12.5 15.2005 12.5233 14.9053 12.5682 14.6176L13.1524 14.4731ZM16.3658 15.5013C16.3658 16.3297 17.0148 17.0013 17.8155 17.0013C18.6161 17.0013 19.2651 16.3297 19.2651 15.5013C19.2651 14.6728 18.6161 14.0013 17.8155 14.0013C17.0148 14.0013 16.3658 14.6728 16.3658 15.5013Z" fill="currentColor"/>
</g>
</svg>
