<svg width="24" height="25" viewBox="0 0 24 25" fill="none" xmlns="http://www.w3.org/2000/svg">
<g id="&#229;&#164;&#132;&#231;&#189;&#174;&#230;&#181;&#129;&#231;&#168;&#139;-24PX-&#233;&#157;&#162;&#230;&#128;&#167;">
<path id="Shape" d="M7.99756 5.95004C7.99756 3.87771 9.67751 2.19775 11.7498 2.19775C13.8222 2.19775 15.5021 3.87771 15.5021 5.95004C15.5021 7.76547 14.2129 9.27978 12.5 9.62732V11.7H15.75C16.9926 11.7 18 12.7074 18 13.95V14.7745C19.7141 15.1211 21.0046 16.636 21.0046 18.4523C21.0046 20.5246 19.3246 22.2046 17.2523 22.2046C15.18 22.2046 13.5 20.5246 13.5 18.4523C13.5 16.6376 14.7882 15.1238 16.5 14.7754V13.95C16.5 13.5358 16.1642 13.2 15.75 13.2H7.75C7.33579 13.2 7 13.5358 7 13.95V14.7745C8.71409 15.1211 10.0046 16.636 10.0046 18.4523C10.0046 20.5246 8.32461 22.2046 6.25228 22.2046C4.17996 22.2046 2.5 20.5246 2.5 18.4523C2.5 16.6376 3.78819 15.1238 5.5 14.7754V13.95C5.5 12.7074 6.50736 11.7 7.75 11.7H11V9.62739C9.28697 9.27996 7.99756 7.76558 7.99756 5.95004Z" fill="currentColor"/>
</g>
</svg>
