<svg width="24" height="24" viewBox="0 0 24 24" fill="none" xmlns="http://www.w3.org/2000/svg">
<g id="&#230;&#148;&#185;&#232;&#191;&#155;&#231;&#174;&#161;&#231;&#144;&#134;-24PX-&#231;&#186;&#191;&#230;&#128;&#167;">
<path id="Shape" d="M21.0304 2.96973C22.4279 4.36719 22.4279 6.63293 21.0304 8.03039L18.386 10.6742C17.8921 10.4291 17.3626 10.2449 16.8073 10.1316L17.9393 8.99963L15.0003 6.06063L5.0621 15.9987C4.96981 16.091 4.9032 16.2058 4.86886 16.3317L3.81901 20.1811L7.66845 19.1313C7.79437 19.097 7.90915 19.0303 8.00144 18.9381L9.13159 17.8073C9.24502 18.3628 9.42932 18.8926 9.67463 19.3867L9.0621 19.9987C8.78522 20.2756 8.44089 20.4754 8.06312 20.5784L2.94743 21.9736C2.38756 22.1263 1.87383 21.6126 2.02652 21.0527L3.42171 15.937C3.52474 15.5593 3.72456 15.2149 4.00144 14.9381L15.9698 2.96973C17.3672 1.57227 19.633 1.57227 21.0304 2.96973ZM15.5001 11.0001C15.7932 11.0001 16.0807 11.0246 16.3609 11.0718L16.5342 11.7879C16.7932 12.8616 17.8736 13.5222 18.9474 13.2632L19.0452 13.237L19.6463 13.0581C20.0088 13.5251 20.2992 14.0546 20.4999 14.6286L20.0527 15.0589C19.2986 15.7844 19.237 16.9589 19.8838 17.7573L20.0252 17.9143L20.4999 18.3715C20.2994 18.9451 20.0092 19.4743 19.647 19.941L19.0452 19.7631C17.9859 19.4502 16.8734 20.0552 16.5604 21.1145L16.5342 21.2123L16.3609 21.9283C16.0807 21.9755 15.7932 22.0001 15.5001 22.0001C15.2067 22.0001 14.9189 21.9755 14.6384 21.9282L14.466 21.2123C14.207 20.1385 13.1266 19.4779 12.0528 19.7369L11.955 19.7631L11.3532 19.941C10.991 19.4743 10.7008 18.9451 10.5003 18.3715L10.9475 17.9413C11.7435 17.1754 11.7678 15.9093 11.002 15.1134L10.9475 15.0589L10.5003 14.6286C10.7008 14.055 10.991 13.5258 11.3532 13.0591L11.955 13.237C13.0143 13.55 14.1268 12.9449 14.4398 11.8856L14.466 11.7879L14.6384 11.072C14.9189 11.0247 15.2067 11.0001 15.5001 11.0001ZM15.5001 15.0001C14.6995 15.0001 14.0504 15.6716 14.0504 16.5001C14.0504 17.3285 14.6995 18.0001 15.5001 18.0001C16.3007 18.0001 16.9498 17.3285 16.9498 16.5001C16.9498 15.6716 16.3007 15.0001 15.5001 15.0001ZM17.0304 4.03039L16.0603 4.99963L18.9993 7.93963L19.9698 6.96973C20.7814 6.15805 20.7814 4.84206 19.9698 4.03039C19.1581 3.21871 17.8421 3.21871 17.0304 4.03039Z" fill="currentColor"/>
</g>
</svg>
