<svg width="24" height="25" viewBox="0 0 24 25" fill="none" xmlns="http://www.w3.org/2000/svg">
<g id="&#229;&#164;&#132;&#231;&#189;&#174;&#230;&#181;&#129;&#231;&#168;&#139;-24PX-&#231;&#186;&#191;&#230;&#128;&#167;">
<path id="Shape" d="M11.7498 2.19775C9.67751 2.19775 7.99756 3.87771 7.99756 5.95004C7.99756 7.76558 9.28697 9.27996 11 9.62739V11.7H7.75C6.50736 11.7 5.5 12.7074 5.5 13.95V14.7754C3.78819 15.1238 2.5 16.6376 2.5 18.4523C2.5 20.5246 4.17996 22.2046 6.25228 22.2046C8.32461 22.2046 10.0046 20.5246 10.0046 18.4523C10.0046 16.636 8.71409 15.1211 7 14.7745V13.95C7 13.5358 7.33579 13.2 7.75 13.2H15.75C16.1642 13.2 16.5 13.5358 16.5 13.95V14.7754C14.7882 15.1238 13.5 16.6376 13.5 18.4523C13.5 20.5246 15.18 22.2046 17.2523 22.2046C19.3246 22.2046 21.0046 20.5246 21.0046 18.4523C21.0046 16.636 19.7141 15.1211 18 14.7745V13.95C18 12.7074 16.9926 11.7 15.75 11.7H12.5V9.62732C14.2129 9.27978 15.5021 7.76547 15.5021 5.95004C15.5021 3.87771 13.8222 2.19775 11.7498 2.19775ZM9.49756 5.95004C9.49756 4.70614 10.5059 3.69775 11.7498 3.69775C12.9937 3.69775 14.0021 4.70614 14.0021 5.95004C14.0021 7.19394 12.9937 8.20232 11.7498 8.20232C10.5059 8.20232 9.49756 7.19394 9.49756 5.95004ZM4 18.4523C4 17.2084 5.00838 16.2 6.25228 16.2C7.49619 16.2 8.50457 17.2084 8.50457 18.4523C8.50457 19.6962 7.49619 20.7046 6.25228 20.7046C5.00838 20.7046 4 19.6962 4 18.4523ZM17.2523 16.2C18.4962 16.2 19.5046 17.2084 19.5046 18.4523C19.5046 19.6962 18.4962 20.7046 17.2523 20.7046C16.0084 20.7046 15 19.6962 15 18.4523C15 17.2084 16.0084 16.2 17.2523 16.2Z" fill="currentColor"/>
</g>
</svg>
