<svg width="24" height="24" viewBox="0 0 24 24" fill="none" xmlns="http://www.w3.org/2000/svg">
<g id="&#232;&#135;&#170;&#229;&#138;&#168;&#229;&#140;&#150;/AOP-24PX-&#231;&#186;&#191;&#230;&#128;&#167;">
<path id="Union" fill-rule="evenodd" clip-rule="evenodd" d="M5.4087 16.3905C5.92294 15.3671 6.67424 14.2051 7.62786 12.9913C8.08781 13.5114 8.57736 14.0324 9.09375 14.5488C9.61013 15.0652 10.1311 15.5547 10.6513 16.0147C9.4374 16.9683 8.27545 17.7196 7.25206 18.2338C6.34165 18.6913 5.61836 18.9217 5.11209 18.9834C4.8644 19.0136 4.72639 18.9986 4.65898 18.9836C4.6439 18.9161 4.62899 18.7781 4.65915 18.5305C4.72081 18.0242 4.95124 17.3009 5.4087 16.3905ZM3.58451 20.058C2.3778 18.8513 3.72075 15.461 6.64144 11.8214C3.72076 8.18176 2.37781 4.79146 3.58452 3.58475C4.79123 2.37804 8.18153 3.721 11.8212 6.64168C15.4608 3.721 18.8511 2.37804 20.0578 3.58475C21.2645 4.79146 19.9216 8.18176 17.0009 11.8214C19.9216 15.461 21.2645 18.8513 20.0578 20.058C18.8511 21.2647 15.4608 19.9218 11.8212 17.0011C8.18153 19.9218 4.79122 21.2647 3.58451 20.058ZM10.1544 13.4881C9.5991 12.9328 9.07888 12.3747 8.59687 11.8214C9.07888 11.2681 9.59909 10.71 10.1544 10.1546C10.7097 9.59933 11.2679 9.07912 11.8212 8.5971C12.3744 9.07912 12.9326 9.59933 13.4879 10.1546C14.0432 10.71 14.5634 11.2681 15.0454 11.8214C14.5634 12.3747 14.0432 12.9328 13.4879 13.4881C12.9326 14.0435 12.3744 14.5637 11.8212 15.0457C11.2679 14.5637 10.7097 14.0435 10.1544 13.4881ZM9.09374 9.09398C9.61012 8.5776 10.1311 8.08805 10.6513 7.6281C9.4374 6.67448 8.27546 5.92318 7.25206 5.40895C6.34166 4.95149 5.61837 4.72105 5.1121 4.6594C4.8644 4.62923 4.7264 4.64415 4.65899 4.65922C4.64391 4.72664 4.629 4.86464 4.65916 5.11233C4.72081 5.6186 4.95125 6.3419 5.40871 7.2523C5.92294 8.27569 6.67424 9.43764 7.62786 10.6515C8.08781 10.1314 8.57736 9.61036 9.09374 9.09398ZM14.5486 9.09398C14.0322 8.5776 13.5112 8.08805 12.991 7.6281C14.2049 6.67448 15.3669 5.92318 16.3902 5.40895C17.3006 4.95149 18.0239 4.72105 18.5302 4.6594C18.7779 4.62923 18.9159 4.64415 18.9833 4.65922C18.9984 4.72664 19.0133 4.86464 18.9831 5.11233C18.9215 5.6186 18.6911 6.3419 18.2336 7.2523C17.7194 8.27569 16.9681 9.43764 16.0144 10.6515C15.5545 10.1314 15.065 9.61036 14.5486 9.09398ZM14.5486 14.5488C15.0649 14.0324 15.5545 13.5114 16.0144 12.9913C16.9681 14.2051 17.7194 15.3671 18.2336 16.3905C18.6911 17.3009 18.9215 18.0242 18.9832 18.5305C19.0133 18.7781 18.9984 18.9161 18.9833 18.9836C18.9159 18.9986 18.7779 19.0136 18.5302 18.9834C18.024 18.9217 17.3007 18.6913 16.3903 18.2338C15.3669 17.7196 14.2049 16.9683 12.991 16.0147C13.5112 15.5547 14.0322 15.0652 14.5486 14.5488ZM4.6766 19.0373C4.67672 19.0372 4.67583 19.0352 4.6736 19.0316C4.67537 19.0356 4.67649 19.0374 4.6766 19.0373ZM4.61093 18.9689C4.60735 18.9667 4.60536 18.9658 4.60527 18.9659C4.60517 18.9661 4.60695 18.9672 4.61093 18.9689ZM18.9657 4.60551C18.9656 4.60561 18.9665 4.6076 18.9687 4.61117C18.9669 4.6072 18.9658 4.60541 18.9657 4.60551ZM19.0314 4.67385C19.0349 4.67608 19.0369 4.67696 19.037 4.67685C19.0371 4.67673 19.0354 4.67562 19.0314 4.67385ZM18.9657 19.0373L18.9662 19.0359L18.9687 19.0316C18.9669 19.0356 18.9658 19.0374 18.9657 19.0373ZM19.0355 18.9666C19.0365 18.9661 19.037 18.9659 19.037 18.9659C19.0371 18.966 19.0361 18.9667 19.0339 18.9678L19.0314 18.9689C19.0332 18.9678 19.0346 18.967 19.0355 18.9666ZM4.67661 4.60551C4.67672 4.60561 4.67584 4.6076 4.67361 4.61117C4.67538 4.6072 4.67649 4.60541 4.67661 4.60551ZM4.61094 4.67385C4.60736 4.67608 4.60537 4.67696 4.60527 4.67685C4.60517 4.67673 4.60696 4.67562 4.61094 4.67385ZM11.9999 13.0002C12.5522 13.0002 12.9999 12.5524 12.9999 12.0002C12.9999 11.4479 12.5522 11.0002 11.9999 11.0002C11.4476 11.0002 10.9999 11.4479 10.9999 12.0002C10.9999 12.5524 11.4476 13.0002 11.9999 13.0002Z" fill="currentColor"/>
</g>
</svg>
