<svg width="24" height="24" viewBox="0 0 24 24" fill="none" xmlns="http://www.w3.org/2000/svg">
<g id="&#230;&#148;&#187;&#233;&#152;&#178;&#230;&#188;&#148;&#231;&#187;&#131;-24PX-&#233;&#157;&#162;&#230;&#128;&#167;">
<path id="Union" fill-rule="evenodd" clip-rule="evenodd" d="M3 5.75C3 5.33579 3.33579 5 3.75 5C6.41341 5 9.00797 4.05652 11.55 2.15C11.8167 1.95 12.1833 1.95 12.45 2.15C13.0293 2.58449 13.6114 2.96897 14.1963 3.30365L13.25 4.25V7.67588C12.8531 7.56136 12.4337 7.5 12 7.5C9.51472 7.5 7.5 9.51472 7.5 12C7.5 14.4853 9.51472 16.5 12 16.5C14.4853 16.5 16.5 14.4853 16.5 12C16.5 11.6491 16.4598 11.3077 16.3839 10.9799L19.6931 10.8069L21 9.5V11C21 16.0012 18.0424 19.6757 12.2749 21.9478C12.0982 22.0174 11.9018 22.0174 11.7251 21.9478C5.95756 19.6757 3 16.0012 3 11V5.75ZM11.9982 14.0001C13.1027 14.0001 13.9982 13.1046 13.9982 12.0001C13.9982 11.7234 13.942 11.4599 13.8405 11.2203L15.5607 9.50009L18.7501 9.50009C18.949 9.50009 19.1397 9.42107 19.2804 9.28043L21.7805 6.78043C21.995 6.56594 22.0591 6.24335 21.943 5.96309C21.827 5.68283 21.5535 5.5001 21.2501 5.50009L18.4999 5.50004V2.75002C18.4999 2.44667 18.3172 2.17319 18.0369 2.05711C17.7567 1.94103 17.4341 2.0052 17.2196 2.2197L14.7197 4.71977C14.579 4.86043 14.5 5.0512 14.5 5.25011L14.5001 8.43931L12.7805 10.1589C12.5402 10.0566 12.2758 10.0001 11.9982 10.0001C10.8936 10.0001 9.99817 10.8955 9.99817 12.0001C9.99817 13.1046 10.8936 14.0001 11.9982 14.0001ZM19.4395 7.00006L18.4394 8.00009L16.059 8.00009C16.0498 7.98978 16.0402 7.97966 16.0303 7.96976C16.0205 7.95988 16.0104 7.95034 16.0001 7.94113L16 5.56073L16.9999 4.56074V6.25003C16.9999 6.66424 17.3357 7.00002 17.7499 7.00003L19.4395 7.00006Z" fill="currentColor"/>
</g>
</svg>
