<svg width="24" height="24" viewBox="0 0 24 24" fill="none" xmlns="http://www.w3.org/2000/svg">
<g id="&#232;&#132;&#154;&#230;&#156;&#172;&#228;&#187;&#147;&#229;&#186;&#147;">
<path id="Union" d="M5.25 3C3.45507 3 2 4.45507 2 6.25V17.75C2 19.5449 3.45507 21 5.25 21H18.75C20.5449 21 22 19.5449 22 17.75V6.25C22 4.45507 20.5449 3 18.75 3H5.25ZM5.25 19.5C4.2835 19.5 3.5 18.7165 3.5 17.75V8.5H20.5V17.75C20.5 18.7165 19.7165 19.5 18.75 19.5H5.25ZM8.85 12.8002C9.18137 12.5517 9.24853 12.0816 9 11.7502C8.75147 11.4189 8.28137 11.3517 7.95 11.6002L5.55 13.4002C5.36115 13.5419 5.25 13.7642 5.25 14.0002C5.25 14.2363 5.36115 14.4586 5.55 14.6002L7.95 16.4002C8.28137 16.6488 8.75147 16.5816 9 16.2502C9.24853 15.9189 9.18137 15.4488 8.85 15.2002L7.25 14.0002L8.85 12.8002ZM14.1859 10.357C14.5411 10.5701 14.6562 11.0308 14.4431 11.386L10.8431 17.386C10.63 17.7412 10.1693 17.8563 9.81413 17.6432C9.45895 17.4301 9.34377 16.9694 9.55688 16.6142L13.1569 10.6142C13.37 10.2591 13.8307 10.1439 14.1859 10.357ZM15.15 15.2002C14.8186 15.4488 14.7515 15.9189 15 16.2502C15.2485 16.5816 15.7186 16.6488 16.05 16.4002L18.45 14.6002C18.6389 14.4586 18.75 14.2363 18.75 14.0002C18.75 13.7642 18.6389 13.5419 18.45 13.4002L16.05 11.6002C15.7186 11.3517 15.2485 11.4189 15 11.7502C14.7515 12.0816 14.8186 12.5517 15.15 12.8002L16.75 14.0002L15.15 15.2002Z" fill="currentColor"/>
</g>
</svg>
