<svg width="24" height="24" viewBox="0 0 24 24" fill="none" xmlns="http://www.w3.org/2000/svg">
<g id="&#231;&#129;&#190;&#229;&#164;&#135;&#232;&#191;&#144;&#231;&#187;&#180;-24PX-&#233;&#157;&#162;&#230;&#128;&#167;">
<path id="Union" fill-rule="evenodd" clip-rule="evenodd" d="M12 3C12 2.66067 11.8279 2.3445 11.543 2.16025C11.258 1.97601 10.8991 1.94883 10.5896 2.08808L2.58964 5.68808C2.23078 5.84956 2 6.20649 2 6.6V17C2 17.3788 2.214 17.725 2.55279 17.8944L10.5528 21.8944C10.8258 22.0309 11.1463 22.0353 11.4229 21.9062L20.4229 17.7062C20.775 17.5419 21 17.1885 21 16.8V14.7324C21.5978 14.3866 22 13.7403 22 13C22 11.8954 21.1046 11 20 11C18.8954 11 18 11.8954 18 13C18 13.7403 18.4022 14.3866 19 14.7324V16.1631L11.015 19.8895L4 16.382V7.24659L10 4.54659V5.57235L6.59386 7.08619C6.23273 7.24669 6 7.60481 6 8V12.1288L5.9138 12.0896C5.41102 11.8611 4.81817 12.0834 4.58963 12.5862C4.3611 13.089 4.58342 13.6818 5.0862 13.9104L10.5862 16.4104C10.8957 16.5511 11.2555 16.5248 11.5414 16.3408C11.8272 16.1567 12 15.84 12 15.5V10.1841L19 7.46185V8.4C19 8.95229 19.4477 9.4 20 9.4C20.5523 9.4 21 8.95229 21 8.4V6C21 5.66988 20.8371 5.36103 20.5646 5.17464C20.2921 4.98825 19.9452 4.94835 19.6376 5.068L17 6.09371V4C17 3.6615 16.8287 3.34597 16.5449 3.16151C16.2611 2.97705 15.9032 2.94871 15.5939 3.08619L12 4.68346V3ZM10 13.947L8 13.0379V8.64988L15 5.53876V6.87149L10.6376 8.568C10.2532 8.71748 10 9.08759 10 9.5V13.947Z" fill="currentColor"/>
</g>
</svg>
