<svg width="24" height="24" viewBox="0 0 24 24" fill="none" xmlns="http://www.w3.org/2000/svg">
<g id="&#230;&#188;&#148;&#231;&#187;&#131;&#228;&#184;&#173;&#229;&#191;&#131;-24PX-&#233;&#157;&#162;&#230;&#128;&#167;">
<path id="Subtract" d="M3.75 5C3.33579 5 3 5.33579 3 5.75V11C3 16.0012 5.95756 19.6757 11.7251 21.9478C11.9018 22.0174 12.0982 22.0174 12.2749 21.9478C18.0424 19.6757 21 16.0012 21 11V5.75C21 5.33579 20.6642 5 20.25 5C17.5866 5 14.992 4.05652 12.45 2.15C12.1833 1.95 11.8167 1.95 11.55 2.15C9.00797 4.05652 6.41341 5 3.75 5ZM12 7C12.4142 7 12.75 7.33579 12.75 7.75V9.61445C13.5275 9.85865 14.1413 10.4725 14.3855 11.25H16.25C16.6642 11.25 17 11.5858 17 12C17 12.4142 16.6642 12.75 16.25 12.75H14.3855C14.1413 13.5275 13.5275 14.1413 12.75 14.3855V16.25C12.75 16.6642 12.4142 17 12 17C11.5858 17 11.25 16.6642 11.25 16.25V14.3855C10.4725 14.1413 9.85865 13.5275 9.61445 12.75H7.75C7.33579 12.75 7 12.4142 7 12C7 11.5858 7.33579 11.25 7.75 11.25H9.61445C9.85865 10.4725 10.4725 9.85865 11.25 9.61445V7.75C11.25 7.33579 11.5858 7 12 7ZM13 12C13 12.5523 12.5523 13 12 13C11.4477 13 11 12.5523 11 12C11 11.4477 11.4477 11 12 11C12.5523 11 13 11.4477 13 12Z" fill="currentColor"/>
</g>
</svg>
