<svg width="24" height="24" viewBox="0 0 24 24" fill="none" xmlns="http://www.w3.org/2000/svg">
<g id="&#231;&#129;&#190;&#229;&#164;&#135;&#232;&#175;&#132;&#228;&#188;&#176;-24PX-&#231;&#186;&#191;&#230;&#128;&#167;">
<path id="Union" fill-rule="evenodd" clip-rule="evenodd" d="M11.4272 2.38356C11.6294 2.52367 11.75 2.75402 11.75 3V4.84809L15.7282 3.301C15.9589 3.21126 16.2191 3.24119 16.4235 3.38098C16.6278 3.52077 16.75 3.75241 16.75 4V6.45922L19.7282 5.30105C19.9589 5.21131 20.2191 5.24124 20.4235 5.38103C20.6278 5.52082 20.75 5.75246 20.75 6.00005V8.50005C20.75 8.91427 20.4142 9.25005 20 9.25005C19.5858 9.25005 19.25 8.91427 19.25 8.50005V7.09644L11.75 10.0131V15.5001C11.75 15.7551 11.6204 15.9926 11.406 16.1306C11.1916 16.2687 10.9218 16.2883 10.6896 16.1828L5.18964 13.6828C4.81256 13.5114 4.64582 13.0667 4.81723 12.6896C4.98863 12.3126 5.43327 12.1458 5.81036 12.3172L6.25 12.5171V7.50005C6.25 7.19074 6.43989 6.91316 6.72816 6.80105L10.25 5.43143V4.08225L3.75 6.51975V16.5365L9.95385 19.6385L9.47469 21.0759L2.66459 17.6709C2.4105 17.5438 2.25 17.2841 2.25 17.0001V6C2.25 5.68737 2.44393 5.40753 2.73666 5.29776L10.7367 2.29776C10.967 2.21139 11.225 2.24345 11.4272 2.38356ZM7.75 13.1989L10.25 14.3353V9.50005C10.25 9.19074 10.4399 8.91316 10.7282 8.80105L15.3594 7H15.25V5.09639L7.75 8.0131V13.1989ZM12.1973 17.5705L18.0993 11.6693C18.9918 10.7769 20.4389 10.7769 21.3314 11.6693C22.224 12.5617 22.224 14.0087 21.3314 14.9011L15.4295 20.8023C15.0854 21.1463 14.6542 21.3904 14.1821 21.5084L12.3516 21.966C11.5555 22.165 10.8344 21.444 11.0334 20.648L11.4911 18.8177C11.6091 18.3457 11.8532 17.9146 12.1973 17.5705Z" fill="currentColor"/>
</g>
</svg>
