<svg width="24" height="24" viewBox="0 0 24 24" fill="none" xmlns="http://www.w3.org/2000/svg">
<g id="&#229;&#174;&#185;&#233;&#135;&#143;&#231;&#174;&#161;&#231;&#144;&#134;-24PX-&#233;&#157;&#162;&#230;&#128;&#167;">
<path id="Union" d="M4.57141 2.14282C3.46684 2.14282 2.57141 3.03825 2.57141 4.14282V6.14282C2.57141 7.24739 3.46684 8.14282 4.57141 8.14282H19.4286C20.5331 8.14282 21.4286 7.24739 21.4286 6.14282V4.14282C21.4286 3.03825 20.5331 2.14282 19.4286 2.14282H4.57141ZM4.57143 8.99996C3.46686 8.99996 2.57143 9.89539 2.57143 11V13C2.57143 14.1045 3.46686 15 4.57143 15H19.4286C20.5331 15 21.4286 14.1045 21.4286 13V11C21.4286 9.89539 20.5331 8.99996 19.4286 8.99996H4.57143ZM2.57143 17.8571C2.57143 16.7525 3.46686 15.8571 4.57143 15.8571H19.4286C20.5331 15.8571 21.4286 16.7525 21.4286 17.8571V19.8571C21.4286 20.9617 20.5331 21.8571 19.4286 21.8571H4.57143C3.46686 21.8571 2.57143 20.9617 2.57143 19.8571V17.8571ZM6 5.99996C5.44772 5.99996 5 5.55225 5 4.99996C5 4.44768 5.44772 3.99996 6 3.99996C6.55228 3.99996 7 4.44768 7 4.99996C7 5.55225 6.55228 5.99996 6 5.99996ZM6 13C5.44772 13 5 12.5522 5 12C5 11.4477 5.44772 11 6 11C6.55228 11 7 11.4477 7 12C7 12.5522 6.55228 13 6 13ZM7 19C7 18.4477 6.55228 18 6 18C5.44772 18 5 18.4477 5 19C5 19.5522 5.44772 20 6 20C6.55228 20 7 19.5522 7 19Z" fill="currentColor"/>
</g>
</svg>
