<svg width="24" height="24" viewBox="0 0 24 24" fill="none" xmlns="http://www.w3.org/2000/svg">
<g id="&#231;&#129;&#190;&#229;&#164;&#135;&#232;&#175;&#132;&#228;&#188;&#176;-24PX-&#233;&#157;&#162;&#230;&#128;&#167;">
<path id="Union" fill-rule="evenodd" clip-rule="evenodd" d="M11.5696 2.17808C11.8392 2.3649 12 2.67203 12 3.00001V4.48262L15.6375 3.068C15.9452 2.94835 16.2921 2.98825 16.5646 3.17464C16.8371 3.36103 17 3.66988 17 4.00001V6.09376L19.6376 5.06805C19.9452 4.9484 20.2921 4.9883 20.5646 5.17469C20.8371 5.36108 21 5.66993 21 6.00005V8.50005C21 9.05234 20.5523 9.50005 20 9.50005C19.4477 9.50005 19 9.05234 19 8.50005V7.4619L12 10.1841V15.5001C12 15.8401 11.8272 16.1568 11.5414 16.3408C11.2555 16.5249 10.8957 16.5511 10.5862 16.4104L5.08619 13.9104C4.58341 13.6818 4.3611 13.089 4.58964 12.5862C4.81818 12.0834 5.41103 11.8611 5.91381 12.0896L6 12.1288V7.50005C6 7.08764 6.25318 6.71753 6.63755 6.56805L10 5.26041V4.44301L4 6.69301V16.382L10.0337 19.3989L9.39483 21.3155L2.55279 17.8945C2.214 17.7251 2 17.3788 2 17.0001V6.00001C2 5.58316 2.25857 5.21004 2.64888 5.06368L10.6489 2.06368C10.956 1.94852 11.3 1.99126 11.5696 2.17808ZM8 13.0379L10 13.947V9.50005C10 9.08764 10.2532 8.71753 10.6376 8.56805L15 6.87154V5.46186L8 8.18412V13.0379ZM12.1973 17.5705L18.0993 11.6693C18.9918 10.7769 20.4389 10.7769 21.3314 11.6693C22.224 12.5617 22.224 14.0087 21.3314 14.9011L15.4295 20.8023C15.0854 21.1463 14.6542 21.3904 14.1821 21.5084L12.3516 21.966C11.5555 22.165 10.8344 21.444 11.0334 20.648L11.4911 18.8177C11.6091 18.3457 11.8532 17.9146 12.1973 17.5705Z" fill="currentColor"/>
</g>
</svg>
