<svg width="24" height="24" viewBox="0 0 24 24" fill="none" xmlns="http://www.w3.org/2000/svg">
<g id="&#228;&#186;&#145;&#229;&#142;&#159;&#231;&#148;&#159;&#233;&#159;&#167;&#230;&#128;&#167;-24PX-&#231;&#186;&#191;&#230;&#128;&#167;">
<path id="Union" fill-rule="evenodd" clip-rule="evenodd" d="M13.4946 2.06378C12.6033 1.58095 11.5283 1.58095 10.6369 2.06378L3.39244 5.98789C2.42436 6.51227 1.82129 7.52479 1.82129 8.62577V15.8027C1.82129 16.9036 2.42436 17.9162 3.39244 18.4405L6.96133 20.3737C7.32554 20.571 7.78073 20.4356 7.97801 20.0714C8.17529 19.7072 8.03997 19.252 7.67575 19.0547L4.10686 17.1216C3.62282 16.8594 3.32129 16.3531 3.32129 15.8027V8.62577C3.32129 8.07528 3.62282 7.56902 4.10686 7.30683L11.3514 3.38272C11.7971 3.14131 12.3345 3.14131 12.7802 3.38272L20.0247 7.30683C20.5088 7.56902 20.8103 8.07528 20.8103 8.62577V15.8027C20.8103 16.3531 20.5088 16.8594 20.0247 17.1216L16.4558 19.0547C16.0916 19.252 15.9563 19.7072 16.1536 20.0714C16.3509 20.4356 16.806 20.571 17.1703 20.3737L20.7392 18.4405C21.7072 17.9162 22.3103 16.9036 22.3103 15.8027V8.62577C22.3103 7.52479 21.7072 6.51227 20.7391 5.98789L13.4946 2.06378ZM11.9999 12.6972L7.20404 9.49996L11.9999 6.30274L16.7957 9.49996L11.9999 12.6972ZM5.74795 8.66791L11.4452 4.86976C11.7811 4.64583 12.2187 4.64583 12.5546 4.86976L18.2518 8.66791C18.8455 9.06373 18.8455 9.93619 18.2518 10.332L12.5546 14.1302C12.2187 14.3541 11.7811 14.3541 11.4452 14.1302L5.74795 10.332C5.15422 9.93619 5.15422 9.06373 5.74795 8.66791ZM11.1887 15.4785L4.99988 11.5V12.181C4.99988 12.6914 5.25941 13.1668 5.68874 13.4428L11.1887 16.9785C11.6829 17.2962 12.3169 17.2962 12.811 16.9785L18.311 13.4428C18.7403 13.1668 18.9999 12.6914 18.9999 12.181V11.5L12.811 15.4785C12.3169 15.7962 11.6829 15.7962 11.1887 15.4785ZM4.99988 14.5L11.1887 18.4785C11.6829 18.7962 12.3169 18.7962 12.811 18.4785L18.9999 14.5V15.181C18.9999 15.6914 18.7403 16.1668 18.311 16.4428L12.811 19.9785C12.3169 20.2962 11.6829 20.2962 11.1887 19.9785L5.68874 16.4428C5.25941 16.1668 4.99988 15.6914 4.99988 15.181V14.5Z" fill="currentColor"/>
</g>
</svg>
