<svg width="24" height="24" viewBox="0 0 24 24" fill="none" xmlns="http://www.w3.org/2000/svg">
<g id="&#229;&#183;&#165;&#229;&#133;&#183;&#228;&#184;&#173;&#229;&#191;&#131;-24PX-&#233;&#157;&#162;&#230;&#128;&#167;">
<path id="Shape" d="M7 6.25269V7.00006H4.25C3.00736 7.00006 2 8.00742 2 9.25006V11.5001H6.5V10.7501C6.5 10.3358 6.83579 10.0001 7.25 10.0001C7.66421 10.0001 8 10.3358 8 10.7501V11.5001H16V10.7501C16 10.3358 16.3358 10.0001 16.75 10.0001C17.1642 10.0001 17.5 10.3358 17.5 10.7501V11.5001H22V9.25006C22 8.00742 20.9926 7.00006 19.75 7.00006H17V6.25269C17 5.01005 15.9926 4.00269 14.75 4.00269H9.25C8.00736 4.00269 7 5.01004 7 6.25269ZM9.25 5.50269H14.75C15.1642 5.50269 15.5 5.83847 15.5 6.25269V7.00006H8.5V6.25269C8.5 5.83847 8.83579 5.50269 9.25 5.50269ZM22 13.0001H17.5V14.2501C17.5 14.6643 17.1642 15.0001 16.75 15.0001C16.3358 15.0001 16 14.6643 16 14.2501V13.0001H8V14.2501C8 14.6643 7.66421 15.0001 7.25 15.0001C6.83579 15.0001 6.5 14.6643 6.5 14.2501V13.0001H2V17.7469C2 18.9895 3.00736 19.9969 4.25 19.9969H19.75C20.9926 19.9969 22 18.9895 22 17.7469V13.0001Z" fill="currentColor"/>
</g>
</svg>
