<svg width="24" height="24" viewBox="0 0 24 24" fill="none" xmlns="http://www.w3.org/2000/svg">
<g id="&#229;&#186;&#148;&#230;&#128;&#165;&#228;&#184;&#173;&#229;&#191;&#131;-24PX-&#233;&#157;&#162;&#230;&#128;&#167;">
<path id="Union" fill-rule="evenodd" clip-rule="evenodd" d="M12.15 3.59985C11.7358 3.59985 11.4 3.93564 11.4 4.34985V5.24985C11.4 5.66407 11.7358 5.99985 12.15 5.99985C12.5642 5.99985 12.9 5.66407 12.9 5.24985V4.34985C12.9 3.93564 12.5642 3.59985 12.15 3.59985ZM16.6274 5.33013C16.3345 5.03724 15.8596 5.03724 15.5667 5.33013L14.9303 5.96653C14.6374 6.25942 14.6374 6.7343 14.9303 7.02719C15.2232 7.32008 15.6981 7.32008 15.991 7.02719L16.6274 6.39079C16.9203 6.0979 16.9203 5.62303 16.6274 5.33013ZM18.4938 7.65753C18.7867 7.36463 19.2616 7.36463 19.5545 7.65753C19.8474 7.95042 19.8474 8.42529 19.5545 8.71819L18.9181 9.35458C18.6252 9.64748 18.1503 9.64748 17.8574 9.35458C17.5646 9.06169 17.5646 8.58682 17.8574 8.29392L18.4938 7.65753ZM7.37275 5.33013C7.66564 5.03724 8.14051 5.03724 8.43341 5.33013L9.0698 5.96653C9.3627 6.25942 9.3627 6.7343 9.0698 7.02719C8.77691 7.32008 8.30204 7.32008 8.00914 7.02719L7.37275 6.39079C7.07985 6.0979 7.07985 5.62303 7.37275 5.33013ZM5.50628 7.65753C5.21339 7.36463 4.73851 7.36463 4.44562 7.65753C4.15273 7.95042 4.15273 8.42529 4.44562 8.71819L5.08202 9.35458C5.37491 9.64748 5.84978 9.64748 6.14268 9.35458C6.43557 9.06169 6.43557 8.58682 6.14268 8.29392L5.50628 7.65753ZM3 19.75C3 19.3358 3.33579 19 3.75 19H6V13C6 9.68629 8.68629 7 12 7C15.3137 7 18 9.68629 18 13V19H20.25C20.6642 19 21 19.3358 21 19.75C21 20.1642 20.6642 20.5 20.25 20.5H18H6H3.75C3.33579 20.5 3 20.1642 3 19.75ZM13.6686 10.8143C13.992 11.073 14.0445 11.545 13.7857 11.8684L12.3605 13.6499H13.2C13.5034 13.6499 13.7769 13.8326 13.893 14.1129C14.009 14.3931 13.9449 14.7157 13.7304 14.9302L11.3304 17.3302C11.0375 17.6231 10.5626 17.6231 10.2697 17.3302C9.97683 17.0373 9.97683 16.5625 10.2697 16.2696L11.3894 15.1499H10.8C10.5117 15.1499 10.249 14.9846 10.1241 14.7248C9.99918 14.4649 10.0343 14.1565 10.2144 13.9314L12.6144 10.9314C12.8732 10.6079 13.3451 10.5555 13.6686 10.8143Z" fill="currentColor"/>
</g>
</svg>
