<svg width="24" height="24" viewBox="0 0 24 24" fill="none" xmlns="http://www.w3.org/2000/svg">
<g id="&#232;&#135;&#170;&#229;&#138;&#168;&#229;&#140;&#150;/AOP-24PX-&#233;&#157;&#162;&#230;&#128;&#167;">
<path id="Union" fill-rule="evenodd" clip-rule="evenodd" d="M5.85547 16.615C6.34326 15.6442 7.05718 14.5349 7.96706 13.3691C8.3264 13.7634 8.70237 14.1574 9.09375 14.5488C9.48512 14.9402 9.87916 15.3161 10.2735 15.6755C9.10764 16.5854 7.99832 17.2993 7.02756 17.7871C6.22425 18.1907 5.6011 18.3961 5.1734 18.4691C5.24641 18.0414 5.45182 17.4183 5.85547 16.615ZM3.58451 20.058C2.3778 18.8513 3.72075 15.461 6.64144 11.8214C3.72076 8.18176 2.37781 4.79146 3.58452 3.58475C4.79123 2.37804 8.18153 3.721 11.8212 6.64168C15.4608 3.721 18.8511 2.37804 20.0578 3.58475C21.2645 4.79146 19.9216 8.18176 17.0009 11.8214C19.9216 15.461 21.2645 18.8513 20.0578 20.058C18.8511 21.2647 15.4608 19.9218 11.8212 17.0011C8.18153 19.9218 4.79122 21.2647 3.58451 20.058ZM10.508 13.1346C10.0701 12.6967 9.65499 12.2577 9.26406 11.8214C9.65499 11.3851 10.0701 10.946 10.508 10.5082C10.9458 10.0703 11.3849 9.65523 11.8212 9.2643C12.2575 9.65523 12.6965 10.0703 13.1344 10.5082C13.5722 10.946 13.9873 11.3851 14.3782 11.8214C13.9873 12.2577 13.5722 12.6967 13.1343 13.1346C12.6965 13.5724 12.2575 13.9876 11.8212 14.3785C11.3849 13.9876 10.9458 13.5724 10.508 13.1346ZM9.09374 9.09398C9.48512 8.70261 9.87916 8.32664 10.2735 7.9673C9.10764 7.05742 7.99833 6.3435 7.02757 5.85572C6.22425 5.45206 5.60111 5.24665 5.17341 5.17364C5.24642 5.60134 5.45183 6.22449 5.85548 7.02781C6.34327 7.99856 7.05718 9.10788 7.96706 10.2737C8.3264 9.8794 8.70236 9.48536 9.09374 9.09398ZM14.5486 9.09398C14.1572 8.70261 13.7632 8.32664 13.3688 7.9673C14.5347 7.05742 15.644 6.3435 16.6147 5.85572C17.4181 5.45206 18.0412 5.24665 18.4689 5.17364C18.3959 5.60134 18.1905 6.22449 17.7868 7.02781C17.299 7.99856 16.5851 9.10788 15.6753 10.2737C15.3159 9.8794 14.9399 9.48536 14.5486 9.09398ZM14.5486 14.5488C14.9399 14.1574 15.3159 13.7634 15.6753 13.3691C16.5851 14.5349 17.2991 15.6442 17.7868 16.615C18.1905 17.4183 18.3959 18.0414 18.4689 18.4691C18.0412 18.3961 17.4181 18.1907 16.6147 17.7871C15.644 17.2993 14.5347 16.5854 13.3688 15.6755C13.7631 15.3161 14.1572 14.9402 14.5486 14.5488ZM5.14865 18.8829C5.14898 18.8826 5.14824 18.877 5.14539 18.867C5.14688 18.8782 5.14831 18.8832 5.14865 18.8829ZM4.77552 18.4972C4.76556 18.4943 4.75998 18.4936 4.75967 18.4939C4.75937 18.4942 4.76436 18.4957 4.77552 18.4972ZM18.4937 4.75992C18.4933 4.76022 18.4941 4.76582 18.4969 4.7758C18.4954 4.76461 18.494 4.75962 18.4937 4.75992ZM18.8667 5.14563C18.8767 5.14848 18.8823 5.14923 18.8826 5.14889C18.8829 5.14855 18.8779 5.14712 18.8667 5.14563ZM18.4937 18.8829C18.4933 18.8826 18.4941 18.877 18.4969 18.867C18.4954 18.8782 18.494 18.8832 18.4937 18.8829ZM18.8668 18.4972C18.8768 18.4943 18.8823 18.4936 18.8826 18.4939C18.8829 18.4942 18.8779 18.4957 18.8668 18.4972ZM5.14865 4.75992C5.14899 4.76022 5.14824 4.76582 5.14539 4.7758C5.14689 4.76461 5.14831 4.75962 5.14865 4.75992ZM4.77556 5.14563C4.76558 5.14848 4.75998 5.14923 4.75968 5.14889C4.75938 5.14855 4.76437 5.14712 4.77556 5.14563ZM11.9999 13.0002C12.5522 13.0002 12.9999 12.5524 12.9999 12.0002C12.9999 11.4479 12.5522 11.0002 11.9999 11.0002C11.4476 11.0002 10.9999 11.4479 10.9999 12.0002C10.9999 12.5524 11.4476 13.0002 11.9999 13.0002Z" fill="currentColor"/>
</g>
</svg>
