<svg width="24" height="24" viewBox="0 0 24 24" fill="none" xmlns="http://www.w3.org/2000/svg">
<g id="&#233;&#163;&#142;&#233;&#153;&#169;&#232;&#175;&#132;&#228;&#188;&#176;-24PX-&#233;&#157;&#162;&#230;&#128;&#167;">
<path id="Subtract" fill-rule="evenodd" clip-rule="evenodd" d="M3.75 5C3.33579 5 3 5.33579 3 5.75V11C3 16.0012 5.95756 19.6757 11.7251 21.9478C11.9018 22.0174 12.0982 22.0174 12.2749 21.9478C18.0424 19.6757 21 16.0012 21 11V5.75C21 5.33579 20.6642 5 20.25 5C17.5866 5 14.992 4.05652 12.45 2.15C12.1833 1.95 11.8167 1.95 11.55 2.15C9.00797 4.05652 6.41341 5 3.75 5ZM9.81175 7.94889L8.25508 11.5H6.75L6.64823 11.5068C6.28215 11.5565 6 11.8703 6 12.25C6 12.6642 6.33579 13 6.75 13H8.7452L8.85531 12.9919C9.10803 12.9545 9.3275 12.7897 9.4321 12.5511L10.4674 10.1894L12.8037 16.024L12.8521 16.1241C13.1407 16.6264 13.8981 16.6253 14.1706 16.081L15.7133 13H17.25L17.3518 12.9932C17.7178 12.9435 18 12.6297 18 12.25C18 11.8358 17.6642 11.5 17.25 11.5H15.2501L15.145 11.5074C14.9033 11.5415 14.6907 11.6921 14.5794 11.9142L13.5762 13.9179L11.1949 7.9712L11.1451 7.86851C10.8475 7.3543 10.0631 7.37561 9.81175 7.94889Z" fill="currentColor"/>
</g>
</svg>
