<svg width="24" height="24" viewBox="0 0 24 24" fill="none" xmlns="http://www.w3.org/2000/svg">
<g id="&#228;&#186;&#145;&#229;&#142;&#159;&#231;&#148;&#159;&#233;&#159;&#167;&#230;&#128;&#167;-24PX-&#233;&#157;&#162;&#230;&#128;&#167;">
<path id="Union" fill-rule="evenodd" clip-rule="evenodd" d="M13.6137 1.84396C12.6481 1.32089 11.4835 1.32089 10.5179 1.84396L3.27337 5.76807C2.22461 6.33614 1.57129 7.43304 1.57129 8.62577V15.8027C1.57129 16.9954 2.22461 18.0923 3.27337 18.6604L6.84226 20.5935C7.32788 20.8565 7.93479 20.6761 8.19783 20.1905C8.46088 19.7049 8.28044 19.098 7.79482 18.8349L4.22593 16.9018C3.82257 16.6833 3.57129 16.2614 3.57129 15.8027V8.62577C3.57129 8.16703 3.82257 7.74514 4.22593 7.52665L11.4704 3.60254C11.8418 3.40137 12.2897 3.40137 12.6611 3.60255L19.9057 7.52665C20.309 7.74514 20.5603 8.16703 20.5603 8.62577V15.8027C20.5603 16.2614 20.309 16.6833 19.9057 16.9018L16.3368 18.8349C15.8511 19.098 15.6707 19.7049 15.9338 20.1905C16.1968 20.6761 16.8037 20.8565 17.2893 20.5935L20.8582 18.6604C21.907 18.0923 22.5603 16.9954 22.5603 15.8027V8.62577C22.5603 7.43304 21.907 6.33615 20.8582 5.76807L13.6137 1.84396ZM11.4452 4.86976L5.74795 8.66791C5.15422 9.06373 5.15422 9.93619 5.74795 10.332L11.4452 14.1302C11.7811 14.3541 12.2187 14.3541 12.5546 14.1302L18.2518 10.332C18.8455 9.93619 18.8455 9.06373 18.2518 8.66791L12.5546 4.86976C12.2187 4.64583 11.7811 4.64583 11.4452 4.86976ZM11.1887 15.4785L4.99988 11.5V12.681C4.99988 13.1914 5.25941 13.6668 5.68874 13.9428L11.1887 17.4785C11.6829 17.7962 12.3169 17.7962 12.811 17.4785L18.311 13.9428C18.7403 13.6668 18.9999 13.1914 18.9999 12.681V11.5L12.811 15.4785C12.3169 15.7962 11.6829 15.7962 11.1887 15.4785ZM4.99988 14.5L11.1887 18.4785C11.6829 18.7962 12.3169 18.7962 12.811 18.4785L18.9999 14.5V15.681C18.9999 16.1914 18.7403 16.6668 18.311 16.9428L12.811 20.4785C12.3169 20.7962 11.6829 20.7962 11.1887 20.4785L5.68874 16.9428C5.25941 16.6668 4.99988 16.1914 4.99988 15.681V14.5Z" fill="currentColor"/>
</g>
</svg>
