<svg width="24" height="24" viewBox="0 0 24 24" fill="none" xmlns="http://www.w3.org/2000/svg">
<g id="&#231;&#155;&#145;&#230;&#142;&#167;&#231;&#174;&#161;&#231;&#144;&#134;-24PX-&#233;&#157;&#162;&#230;&#128;&#167;">
<path id="Union" fill-rule="evenodd" clip-rule="evenodd" d="M2.5 4.97129C2.5 3.64581 3.57452 2.57129 4.9 2.57129H19.1C20.4255 2.57129 21.5 3.64581 21.5 4.97129V15.5999C21.5 16.9253 20.4255 17.9999 19.1 17.9999H15.4286V18.0101V19.8762V20.1431H16.7902H17.3571C17.7122 20.1431 18 20.4309 18 20.7859C18 21.141 17.7122 21.4288 17.3571 21.4288H16.7902H7.20982H6.64286C6.28782 21.4288 6 21.141 6 20.7859C6 20.4309 6.28782 20.1431 6.64286 20.1431H7.20982H8.57141V19.8762V18.0101V17.9999H4.9C3.57452 17.9999 2.5 16.9253 2.5 15.5999V4.97129ZM9.85713 20.1431H14.1429V19.8762V18.0101V17.9999H9.85713V18.0101V19.8762V20.1431ZM9.93028 7.5923C10.1453 8.33712 9.69827 9.11143 8.94572 9.29762L8.54662 9.39635C8.51594 9.5929 8.5 9.79455 8.5 10.0001C8.5 10.215 8.51745 10.4258 8.55096 10.6309L8.91949 10.7196C9.67951 10.9027 10.1313 11.6849 9.91005 12.4347L9.7828 12.8659C10.0828 13.1294 10.4247 13.3433 10.7967 13.4955L11.1337 13.1411C11.6724 12.5746 12.5757 12.5748 13.1142 13.1415L13.4549 13.5C13.8263 13.3495 14.1678 13.1376 14.4679 12.8763L14.3326 12.4078C14.1176 11.6629 14.5647 10.8886 15.3172 10.7024L15.716 10.6038C15.7467 10.4072 15.7626 10.2056 15.7626 10.0001C15.7626 9.78503 15.7451 9.57423 15.7116 9.36908L15.3434 9.28041C14.5834 9.09738 14.1316 8.31516 14.3529 7.56537L14.48 7.13438C14.18 6.87086 13.8381 6.65689 13.4661 6.50466L13.1292 6.85891C12.5905 7.42541 11.6872 7.42526 11.1487 6.85857L10.8079 6.5C10.4366 6.65043 10.095 6.86231 9.79495 7.12354L9.93028 7.5923ZM12.1313 11.0248C11.5843 11.0248 11.1409 10.566 11.1409 10.0001C11.1409 9.43411 11.5843 8.97532 12.1313 8.97532C12.6783 8.97532 13.1217 9.43411 13.1217 10.0001C13.1217 10.566 12.6783 11.0248 12.1313 11.0248Z" fill="currentColor"/>
</g>
</svg>
