<svg width="24" height="24" viewBox="0 0 24 24" fill="none" xmlns="http://www.w3.org/2000/svg">
<g id="&#230;&#188;&#148;&#231;&#187;&#131;&#228;&#184;&#173;&#229;&#191;&#131;-24PX-&#231;&#186;&#191;&#230;&#128;&#167;">
<path id="Union" d="M3.75 5C3.33579 5 3 5.33579 3 5.75V11C3 16.0012 5.95756 19.6757 11.7251 21.9478C11.9018 22.0174 12.0982 22.0174 12.2749 21.9478C18.0424 19.6757 21 16.0012 21 11V5.75C21 5.33579 20.6642 5 20.25 5C17.5866 5 14.992 4.05652 12.45 2.15C12.1833 1.95 11.8167 1.95 11.55 2.15C9.00797 4.05652 6.41341 5 3.75 5ZM4.5 11V6.47793C7.07735 6.32585 9.58084 5.38829 12 3.67782C14.4192 5.38829 16.9227 6.32585 19.5 6.47793V11C19.5 15.2556 17.0466 18.3789 12 20.4419C6.95337 18.3789 4.5 15.2556 4.5 11ZM12 7C11.5858 7 11.25 7.33579 11.25 7.75V9.61445C10.4725 9.85865 9.85865 10.4725 9.61445 11.25H7.75C7.33579 11.25 7 11.5858 7 12C7 12.4142 7.33579 12.75 7.75 12.75H9.61445C9.85865 13.5275 10.4725 14.1413 11.25 14.3855V16.25C11.25 16.6642 11.5858 17 12 17C12.4142 17 12.75 16.6642 12.75 16.25V14.3855C13.5275 14.1413 14.1413 13.5275 14.3855 12.75H16.25C16.6642 12.75 17 12.4142 17 12C17 11.5858 16.6642 11.25 16.25 11.25H14.3855C14.1413 10.4725 13.5275 9.85865 12.75 9.61445V7.75C12.75 7.33579 12.4142 7 12 7ZM13 12C13 12.5523 12.5523 13 12 13C11.4477 13 11 12.5523 11 12C11 11.4477 11.4477 11 12 11C12.5523 11 13 11.4477 13 12Z" fill="currentColor"/>
</g>
</svg>
