<svg width="24" height="24" viewBox="0 0 24 24" fill="none" xmlns="http://www.w3.org/2000/svg">
<g id="&#230;&#183;&#183;&#230;&#178;&#140;&#229;&#183;&#165;&#231;&#168;&#139;-24PX-&#231;&#186;&#191;&#230;&#128;&#167;">
<path id="Union" fill-rule="evenodd" clip-rule="evenodd" d="M12.0199 8.50584L5.81945 6.85457L11.9801 5.20827L18.1806 6.85954L12.0199 8.50584ZM3.10482 7.68391C2.25645 7.45797 2.25594 6.25421 3.10412 6.02755L11.7585 3.71485C11.9033 3.67617 12.0556 3.6761 12.2004 3.71466L20.8952 6.0302C21.7436 6.25613 21.7441 7.4599 20.8959 7.68656L12.2415 9.99926C12.0967 10.0379 11.9444 10.038 11.7996 9.99945L3.10482 7.68391ZM4.00001 17.6272V11.258L9.57144 12.3723V18.7415L4.00001 17.6272ZM2.50001 10.4739C2.50001 9.93299 2.99486 9.52731 3.52525 9.63339L10.3824 11.0048C10.783 11.085 11.0714 11.4367 11.0714 11.8453V19.5257C11.0714 20.0666 10.5766 20.4722 10.0462 20.3662L3.18905 18.9947C2.7884 18.9146 2.50001 18.5628 2.50001 18.1542V10.4739ZM20 11.258V17.6272L14.4286 18.7415V12.3723L20 11.258ZM20.4748 9.63339C21.0052 9.52731 21.5 9.93299 21.5 10.4739V18.1542C21.5 18.5628 21.2116 18.9146 20.811 18.9947L13.9538 20.3662C13.4234 20.4722 12.9286 20.0666 12.9286 19.5257V11.8453C12.9286 11.4367 13.217 11.085 13.6176 11.0048L20.4748 9.63339ZM5.75001 12.4999C5.3358 12.4999 5.00001 12.8357 5.00001 13.2499V16.2499C5.00001 16.6641 5.3358 16.9999 5.75001 16.9999C6.16422 16.9999 6.50001 16.6641 6.50001 16.2499V13.2499C6.50001 12.8357 6.16422 12.4999 5.75001 12.4999Z" fill="currentColor"/>
</g>
</svg>
