<svg width="24" height="24" viewBox="0 0 24 24" fill="none" xmlns="http://www.w3.org/2000/svg">
<g id="&#228;&#184;&#154;&#229;&#138;&#161;&#232;&#191;&#158;&#231;&#187;&#173;&#230;&#128;&#167;">
<path id="Union" fill-rule="evenodd" clip-rule="evenodd" d="M8.5 3C7.67157 3 7 3.67157 7 4.5H17C17 3.67157 16.3284 3 15.5 3H8.5ZM5 7.5C5 6.67157 5.67157 6 6.5 6H17.5C18.3284 6 19 6.67157 19 7.5H5ZM4 10.6C4 9.71634 4.71634 9 5.6 9H18.4C19.2837 9 20 9.71634 20 10.6V19.4C20 20.2837 19.2837 21 18.4 21H5.6C4.71634 21 4 20.2837 4 19.4V10.6Z" fill="currentColor"/>
</g>
</svg>
