<svg width="24" height="24" viewBox="0 0 24 24" fill="none" xmlns="http://www.w3.org/2000/svg">
<g id="&#229;&#186;&#148;&#230;&#128;&#165;&#228;&#184;&#173;&#229;&#191;&#131;-24PX-&#231;&#186;&#191;&#230;&#128;&#167;">
<path id="Union" d="M11.4 4.34985C11.4 3.93564 11.7358 3.59985 12.15 3.59985C12.5642 3.59985 12.9 3.93564 12.9 4.34985V5.24985C12.9 5.66407 12.5642 5.99985 12.15 5.99985C11.7358 5.99985 11.4 5.66407 11.4 5.24985V4.34985ZM15.5666 5.33009C15.8595 5.03719 16.3344 5.03719 16.6273 5.33009C16.9202 5.62298 16.9202 6.09785 16.6273 6.39075L15.9909 7.02714C15.698 7.32004 15.2231 7.32004 14.9302 7.02714C14.6374 6.73425 14.6374 6.25938 14.9302 5.96648L15.5666 5.33009ZM19.5545 7.65743C19.2616 7.36454 18.7867 7.36454 18.4938 7.65743L17.8574 8.29383C17.5646 8.58672 17.5646 9.06159 17.8574 9.35449C18.1503 9.64738 18.6252 9.64738 18.9181 9.35449L19.5545 8.71809C19.8474 8.4252 19.8474 7.95032 19.5545 7.65743ZM8.43336 5.33013C8.14046 5.03724 7.66559 5.03724 7.3727 5.33013C7.0798 5.62303 7.0798 6.0979 7.3727 6.39079L8.00909 7.02719C8.30199 7.32008 8.77686 7.32008 9.06975 7.02719C9.36265 6.7343 9.36265 6.25942 9.06975 5.96653L8.43336 5.33013ZM4.44557 7.65753C4.73847 7.36463 5.21334 7.36463 5.50623 7.65753L6.14263 8.29392C6.43552 8.58682 6.43552 9.06169 6.14263 9.35458C5.84974 9.64748 5.37486 9.64748 5.08197 9.35458L4.44557 8.71819C4.15268 8.42529 4.15268 7.95042 4.44557 7.65753ZM16.5 13C16.5 10.5147 14.4853 8.5 12 8.5C9.51472 8.5 7.5 10.5147 7.5 13V19H16.5V13ZM6 19V13C6 9.68629 8.68629 7 12 7C15.3137 7 18 9.68629 18 13V19H20.25C20.6642 19 21 19.3358 21 19.75C21 20.1642 20.6642 20.5 20.25 20.5H18H16.5H7.5H6H3.75C3.33579 20.5 3 20.1642 3 19.75C3 19.3358 3.33579 19 3.75 19H6ZM13.6686 10.8143C13.992 11.073 14.0445 11.545 13.7857 11.8684L12.3605 13.6499H13.2C13.5034 13.6499 13.7769 13.8326 13.893 14.1129C14.009 14.3931 13.9449 14.7157 13.7304 14.9302L11.3304 17.3302C11.0375 17.6231 10.5626 17.6231 10.2697 17.3302C9.97683 17.0373 9.97683 16.5625 10.2697 16.2696L11.3894 15.1499H10.8C10.5117 15.1499 10.249 14.9846 10.1241 14.7248C9.99918 14.4649 10.0343 14.1565 10.2144 13.9314L12.6144 10.9314C12.8732 10.6079 13.3451 10.5555 13.6686 10.8143Z" fill="currentColor"/>
</g>
</svg>
