<svg width="24" height="24" viewBox="0 0 24 24" fill="none" xmlns="http://www.w3.org/2000/svg">
<g id="&#230;&#183;&#183;&#230;&#178;&#140;&#229;&#183;&#165;&#231;&#168;&#139;-24PX-&#233;&#157;&#162;&#230;&#128;&#167;">
<path id="Union" fill-rule="evenodd" clip-rule="evenodd" d="M3.10482 7.68391C2.25645 7.45798 2.25594 6.25421 3.10412 6.02755L11.7585 3.71485C11.9033 3.67617 12.0556 3.6761 12.2004 3.71466L20.8952 6.0302C21.7436 6.25614 21.7441 7.4599 20.8959 7.68656L12.2415 9.99926C12.0967 10.0379 11.9444 10.038 11.7996 9.99945L3.10482 7.68391ZM21.5 10.4739C21.5 9.93299 21.0052 9.52731 20.4748 9.63339L13.6176 11.0048C13.217 11.085 12.9286 11.4367 12.9286 11.8453V19.5257C12.9286 20.0665 13.4234 20.4722 13.9538 20.3662L20.811 18.9947C21.2116 18.9146 21.5 18.5628 21.5 18.1542V10.4739ZM2.50001 10.474C2.50001 9.93312 2.99486 9.52743 3.52525 9.63351L10.3824 11.0049C10.783 11.0851 11.0714 11.4369 11.0714 11.8454V19.5258C11.0714 20.0667 10.5766 20.4724 10.0462 20.3663L3.18905 18.9948C2.7884 18.9147 2.50001 18.5629 2.50001 18.1543V10.474ZM5.00001 13.25C5.00001 12.8358 5.3358 12.5 5.75001 12.5C6.16422 12.5 6.50001 12.8358 6.50001 13.25V16.25C6.50001 16.6642 6.16422 17 5.75001 17C5.3358 17 5.00001 16.6642 5.00001 16.25V13.25Z" fill="currentColor"/>
</g>
</svg>
