<svg width="24" height="24" viewBox="0 0 24 24" fill="none" xmlns="http://www.w3.org/2000/svg">
<g id="&#229;&#174;&#185;&#233;&#135;&#143;&#231;&#174;&#161;&#231;&#144;&#134;-24PX-&#231;&#186;&#191;&#230;&#128;&#167;">
<path id="Union" d="M4.57141 3.64282C4.29527 3.64282 4.07141 3.86668 4.07141 4.14282V6.14282C4.07141 6.41896 4.29527 6.64282 4.57141 6.64282H19.4286C19.7047 6.64282 19.9286 6.41896 19.9286 6.14282V4.14282C19.9286 3.86668 19.7047 3.64282 19.4286 3.64282H4.57141ZM2.57141 4.14282C2.57141 3.03825 3.46684 2.14282 4.57141 2.14282H19.4286C20.5331 2.14282 21.4286 3.03825 21.4286 4.14282V6.14282C21.4286 7.24739 20.5331 8.14282 19.4286 8.14282H4.57141C3.46684 8.14282 2.57141 7.24739 2.57141 6.14282V4.14282ZM4.57143 10.5C4.29529 10.5 4.07143 10.7238 4.07143 11V13C4.07143 13.2761 4.29529 13.5 4.57143 13.5H19.4286C19.7047 13.5 19.9286 13.2761 19.9286 13V11C19.9286 10.7238 19.7047 10.5 19.4286 10.5H4.57143ZM2.57143 11C2.57143 9.89539 3.46686 8.99996 4.57143 8.99996H19.4286C20.5331 8.99996 21.4286 9.89539 21.4286 11V13C21.4286 14.1045 20.5331 15 19.4286 15H4.57143C3.46686 15 2.57143 14.1045 2.57143 13V11ZM19.4286 17.3571C19.7047 17.3571 19.9286 17.581 19.9286 17.8571V19.8571C19.9286 20.1332 19.7047 20.3571 19.4286 20.3571H4.57143C4.29529 20.3571 4.07143 20.1332 4.07143 19.8571V17.8571C4.07143 17.581 4.29529 17.3571 4.57143 17.3571H19.4286ZM4.57143 15.8571C3.46686 15.8571 2.57143 16.7525 2.57143 17.8571V19.8571C2.57143 20.9617 3.46686 21.8571 4.57143 21.8571H19.4286C20.5331 21.8571 21.4286 20.9617 21.4286 19.8571V17.8571C21.4286 16.7525 20.5331 15.8571 19.4286 15.8571H4.57143ZM6.00003 5.99996C6.55232 5.99996 7.00003 5.55225 7.00003 4.99996C7.00003 4.44768 6.55232 3.99996 6.00003 3.99996C5.44775 3.99996 5.00003 4.44768 5.00003 4.99996C5.00003 5.55225 5.44775 5.99996 6.00003 5.99996ZM6.00003 13C6.55232 13 7.00003 12.5522 7.00003 12C7.00003 11.4477 6.55232 11 6.00003 11C5.44775 11 5.00003 11.4477 5.00003 12C5.00003 12.5522 5.44775 13 6.00003 13ZM7.00003 19C7.00003 19.5522 6.55232 20 6.00003 20C5.44775 20 5.00003 19.5522 5.00003 19C5.00003 18.4477 5.44775 18 6.00003 18C6.55232 18 7.00003 18.4477 7.00003 19Z" fill="currentColor"/>
</g>
</svg>
