<svg t="1632735374083" class="icon" viewBox="0 0 1024 1024" version="1.1" xmlns="http://www.w3.org/2000/svg" p-id="1296" width="300" height="300"><path d="M992 1024 31.296 1024C14.016 1024 0 1009.984 0 992.704l0-333.056c0-17.28 14.016-31.296 31.296-31.296L992 628.352c17.28 0 31.296 14.016 31.296 31.296l0 333.056C1023.36 1009.984 1009.344 1024 992 1024zM62.656 961.344l898.048 0 0-270.4L62.656 690.944 62.656 961.344z" p-id="1297"></path><path d="M992.32 603.392 551.296 603.392c-17.28 0-31.296-14.016-31.296-31.296l0-540.8C519.936 14.016 533.952 0 551.296 0l441.088 0c17.28 0 31.296 14.016 31.296 31.296l0 199.552c0 17.28-14.016 31.296-31.296 31.296s-31.296-14.016-31.296-31.296L961.088 62.656 582.592 62.656 582.592 540.8l378.432 0L961.024 478.208c0-17.28 14.016-31.296 31.296-31.296s31.296 14.016 31.296 31.296l0 93.888C1023.68 589.376 1009.664 603.392 992.32 603.392z" p-id="1298"></path><path d="M469.504 605.376 31.296 605.376C14.016 605.376 0 591.36 0 574.016l0-230.72c0-17.28 14.016-31.296 31.296-31.296l438.208 0c17.28 0 31.296 14.016 31.296 31.296l0 230.72C500.8 591.36 486.784 605.376 469.504 605.376zM62.656 542.72l375.552 0L438.208 374.656 62.656 374.656 62.656 542.72z" p-id="1299"></path><path d="M469.824 293.376 31.68 293.376c-17.28 0-31.296-14.016-31.296-31.296l0-230.72C0.32 14.016 14.336 0 31.68 0l438.208 0c17.28 0 31.296 14.016 31.296 31.296l0 230.72C501.184 279.36 487.168 293.376 469.824 293.376zM62.976 230.72l375.552 0L438.528 62.656 62.976 62.656 62.976 230.72z" p-id="1300"></path></svg>