<?xml version="1.0" encoding="UTF-8"?>
<svg width="17px" height="19px" viewBox="0 0 17 19" version="1.1" xmlns="http://www.w3.org/2000/svg" xmlns:xlink="http://www.w3.org/1999/xlink">
    <title>验证码</title>
    <g id="登录" stroke="none" stroke-width="1" fill="none" fill-rule="evenodd">
        <g id="-" transform="translate(-1614.000000, -393.000000)" fill="#B9BED1" fill-rule="nonzero">
            <g id="验证码" transform="translate(1614.610000, 393.852500)">
                <path d="M15.8011621,3.75832351 L15.8011621,3.75832402 C15.7457139,3.2148529 15.3450608,2.76968528 14.8104114,2.65749543 L14.8104105,2.65749528 C13.7266138,2.48706237 12.6561574,2.24059648 11.6069379,1.91992365 L11.6069387,1.91992396 C10.5794712,1.49844978 9.61606256,0.935223219 8.74474201,0.246642262 L8.74474202,0.246642263 C8.28768633,-0.0822080295 7.6716155,-0.0822080295 7.21455981,0.24664226 L7.21455998,0.246642107 C6.38965991,1.00958161 5.40402893,1.57763506 4.33034772,1.90891774 L4.33034771,1.90891774 C3.33626365,2.32014383 2.28610362,2.57990003 1.21493749,2.67951274 L1.21493737,2.67951276 C0.668649708,2.76773784 0.259451189,3.22752308 0.235208219,3.78035684 C0.235208219,3.78035684 0.202184861,6.54348346 0.202184861,8.97634203 C0.202184861,13.3797322 5.39817005,17.6399866 7.99616264,17.6399866 C10.5941552,17.6399866 14.9975454,14.6346715 15.7020781,9.04238875 C15.8782027,5.73984616 15.7571169,3.76934906 15.7571169,3.76934906 L15.8011621,3.75832351 Z M12.9719887,7.15997064 L7.54480559,12.2788841 L7.54480558,12.2788841 C7.29964375,12.5116325 6.92764087,12.547922 6.64211715,12.3669462 L6.49901628,12.2458435 L3.5046917,9.13045052 L3.50469164,9.13045045 C3.22502324,8.82645639 3.24474595,8.35330419 3.54874001,8.07363579 C3.85273406,7.79396739 4.32588627,7.8136901 4.60555467,8.11768416 L7.07145383,10.704669 L11.9591865,6.08112312 L11.9591865,6.08112314 C12.2631771,5.8014513 12.7363276,5.82116368 13.0160012,6.12515412 C13.295673,6.42914473 13.2759606,6.90229521 12.9719702,7.18196878 C12.9719702,7.18196878 12.9719702,7.18196879 12.9719702,7.18196879" id="形状"></path>
            </g>
        </g>
    </g>
</svg>