<svg width="20" height="20" viewBox="0 0 20 20" fill="none" xmlns="http://www.w3.org/2000/svg">
<path fill-rule="evenodd" clip-rule="evenodd" d="M15.2442 6.14846L10.7442 3.57703C10.2831 3.31352 9.71694 3.31352 9.25579 3.57703L4.75579 6.14846C4.28843 6.41552 4 6.91254 4 7.45082V12.5492C4 13.0875 4.28843 13.5845 4.75579 13.8516L9.25579 16.423L9.64338 17.5951C9.33699 17.551 9.03693 17.4497 8.75965 17.2912L4.25965 14.7198C3.48071 14.2747 3 13.4464 3 12.5492V7.45082C3 6.55368 3.48072 5.72532 4.25965 5.28022L8.75965 2.70879C9.52823 2.2696 10.4718 2.2696 11.2403 2.70879L15.7403 5.28022C16.5193 5.72532 17 6.55368 17 7.45082V9.5L16 9V7.45082C16 6.91254 15.7116 6.41552 15.2442 6.14846ZM9.78369 13.436C10.8716 13.1656 11.5176 12.0772 11.2143 11.0255L11.0582 10.4839C11.3122 10.2939 11.5876 10.1312 11.8801 10L12.2174 10.3482C13.0063 11.1625 14.3371 11.1632 15.1269 10.3497L15.4516 10.0153C15.7494 10.152 16.0292 10.3215 16.2864 10.5192L16.1602 10.93C15.8309 12.0021 16.4969 13.1229 17.6163 13.3803L17.9653 13.4606C17.9869 13.6374 17.998 13.8174 17.998 14.0001C17.998 14.1519 17.9903 14.3018 17.9754 14.4496L17.5148 14.564C16.4269 14.8344 15.7809 15.9228 16.0842 16.9745L16.2403 17.5159C15.9863 17.706 15.7109 17.8687 15.4185 18L15.0811 17.6518C14.2922 16.8375 12.9614 16.8368 12.1716 17.6503L11.8466 17.985C11.5489 17.8484 11.2691 17.6789 11.0119 17.4813L11.1383 17.07C11.4676 15.9979 10.8016 14.8771 9.68221 14.6197L9.33265 14.5393C9.31109 14.3626 9.29999 14.1827 9.29999 14.0001C9.29999 13.8483 9.30766 13.6984 9.32264 13.5506L9.78369 13.436ZM12.649 14.0001C12.649 14.5374 13.0967 14.9729 13.649 14.9729C14.2013 14.9729 14.649 14.5374 14.649 14.0001C14.649 13.4629 14.2013 13.0274 13.649 13.0274C13.0967 13.0274 12.649 13.4629 12.649 14.0001Z" fill="#212121"/>
</svg>
