<svg width="20" height="20" viewBox="0 0 20 20" fill="none" xmlns="http://www.w3.org/2000/svg">
<path fill-rule="evenodd" clip-rule="evenodd" d="M15.2442 6.14846L10.7442 3.57703C10.2831 3.31352 9.71694 3.31352 9.25579 3.57703L4.75579 6.14846C4.28843 6.41552 4 6.91254 4 7.45082V12.5492C4 13.0875 4.28843 13.5845 4.75579 13.8516L8 15.7054V16.8572L4.25965 14.7198C3.48071 14.2747 3 13.4464 3 12.5492V7.45082C3 6.55368 3.48071 5.72532 4.25965 5.28022L8.75965 2.70879C9.52823 2.2696 10.4718 2.2696 11.2403 2.70879L15.7403 5.28022C16.5193 5.72532 17 6.55368 17 7.45082V12.5492C17 13.4464 16.5193 14.2747 15.7403 14.7198L12 16.8572V15.7054L15.2442 13.8516C15.7116 13.5845 16 13.0875 16 12.5492V7.45082C16 6.91254 15.7116 6.41552 15.2442 6.14846ZM8.5 8.5C8.77614 8.5 9 8.27614 9 8C9 7.72386 8.77614 7.5 8.5 7.5C8.22386 7.5 8 7.72386 8 8C8 8.27614 8.22386 8.5 8.5 8.5ZM8.5 9.5C9.15311 9.5 9.70873 9.0826 9.91465 8.5H14C14.2761 8.5 14.5 8.27614 14.5 8C14.5 7.72386 14.2761 7.5 14 7.5H9.91465C9.70873 6.9174 9.15311 6.5 8.5 6.5C7.84689 6.5 7.29127 6.9174 7.08535 7.5H6C5.72386 7.5 5.5 7.72386 5.5 8C5.5 8.27614 5.72386 8.5 6 8.5H7.08535C7.29127 9.0826 7.84689 9.5 8.5 9.5ZM11.5 12.5C11.2239 12.5 11 12.2761 11 12C11 11.7239 11.2239 11.5 11.5 11.5C11.7761 11.5 12 11.7239 12 12C12 12.2761 11.7761 12.5 11.5 12.5ZM11.5 13.5C10.8469 13.5 10.2913 13.0826 10.0854 12.5H6C5.72386 12.5 5.5 12.2761 5.5 12C5.5 11.7239 5.72386 11.5 6 11.5H10.0854C10.2913 10.9174 10.8469 10.5 11.5 10.5C12.1531 10.5 12.7087 10.9174 12.9146 11.5H14C14.2761 11.5 14.5 11.7239 14.5 12C14.5 12.2761 14.2761 12.5 14 12.5H12.9146C12.7087 13.0826 12.1531 13.5 11.5 13.5Z" fill="#212121"/>
</svg>
