<svg width="20" height="20" viewBox="0 0 20 20" fill="none" xmlns="http://www.w3.org/2000/svg">
<path fill-rule="evenodd" clip-rule="evenodd" d="M9.34226 3.20368C8.70792 2.82208 7.91468 2.82208 7.28034 3.20368L3.46904 5.49641C2.86775 5.85813 2.5 6.50851 2.5 7.21022V11.9763C2.5 12.678 2.86775 13.3284 3.46904 13.6901L7.50269 16.1166C8.00022 16.4159 8.62238 16.4159 9.11991 16.1166L9.63538 16.9735C8.82069 17.4636 7.80191 17.4636 6.98721 16.9735L2.95356 14.547C2.05162 14.0045 1.5 13.0289 1.5 11.9763V7.21022C1.5 6.15766 2.05162 5.18208 2.95356 4.63951L6.76486 2.34678C7.71637 1.77438 8.90623 1.77438 9.85774 2.34677L10.9358 2.99528L10.4203 3.85218L9.34226 3.20368Z" fill="#212121"/>
<path fill-rule="evenodd" clip-rule="evenodd" d="M9.86764 3.39717C10.8405 2.78916 12.0748 2.78916 13.0476 3.39717L16.5476 5.58467C17.4248 6.13288 17.9576 7.09429 17.9576 8.12866V12.8574C17.9576 13.8918 17.4248 14.8532 16.5476 15.4014L13.0476 17.5889C12.0748 18.1969 10.8405 18.1969 9.86764 17.5889L6.36764 15.4014C5.4905 14.8532 4.95764 13.8918 4.95764 12.8574V11.493H5.95764V12.8574C5.95764 13.547 6.31288 14.1879 6.89764 14.5534L10.3976 16.7409C11.0462 17.1463 11.8691 17.1463 12.5176 16.7409L16.0176 14.5534C16.6024 14.1879 16.9576 13.547 16.9576 12.8574V8.12866C16.9576 7.43908 16.6024 6.79814 16.0176 6.43267L12.5176 4.24517C11.8691 3.83983 11.0462 3.83983 10.3976 4.24517L6.89764 6.43267C6.31288 6.79814 5.95764 7.43908 5.95764 8.12866V8.49304H4.95764V8.12866C4.95764 7.09429 5.4905 6.13288 6.36764 5.58467L9.86764 3.39717Z" fill="#212121"/>
<path d="M8.70577 12.1395C8.51051 12.3348 8.51051 12.6513 8.70577 12.8466C8.90103 13.0419 9.21761 13.0419 9.41288 12.8466L11.4129 10.8466C11.6081 10.6513 11.6081 10.3348 11.4129 10.1395L9.41288 8.13949C9.21761 7.94423 8.90103 7.94423 8.70577 8.13949C8.51051 8.33475 8.51051 8.65133 8.70577 8.8466L9.85221 9.99304H9.55933C8.04189 9.99304 6.74459 9.9891 5.57802 9.63913C5.02116 9.47207 4.48931 9.22403 3.98115 8.8483C3.74559 8.67413 3.40732 8.70415 3.23174 8.93867C3.07687 9.14553 3.10536 9.43853 3.31074 9.59536C3.93144 10.0693 4.59192 10.3873 5.29067 10.597C6.6112 10.9931 8.04871 10.9931 9.51636 10.993L9.85221 10.993L8.70577 12.1395Z" fill="#212121"/>
</svg>
