<svg width="20" height="20" viewBox="0 0 20 20" fill="none" xmlns="http://www.w3.org/2000/svg">
<path fill-rule="evenodd" clip-rule="evenodd" d="M16 13V5.26758C16.5978 5.61339 17 6.25973 17 7.00001V13C17 15.2091 15.2091 17 13 17H7C6.25972 17 5.61337 16.5978 5.26756 16H13C14.6569 16 16 14.6569 16 13ZM12 9C12 9.27614 11.7761 9.49999 11.5 9.49999H9.5V11.5C9.5 11.7761 9.27614 12 9 12C8.72386 12 8.5 11.7761 8.5 11.5V9.49999H6.5C6.22386 9.49999 6 9.27614 6 8.99999C6 8.72385 6.22386 8.5 6.5 8.5H8.5V6.5C8.5 6.22386 8.72386 6 9 6C9.27614 6 9.5 6.22386 9.5 6.5V8.5H11.5C11.7761 8.5 12 8.72385 12 9ZM15 5C15 3.89543 14.1046 3 13 3H5C3.89543 3 3 3.89543 3 5V13C3 14.1046 3.89543 15 5 15H13C14.1046 15 15 14.1046 15 13V5ZM13 4C13.5523 4 14 4.44771 14 5V13C14 13.5523 13.5523 14 13 14H5C4.44771 14 4 13.5523 4 13L4 5C4 4.44771 4.44772 4 5 4L13 4Z" fill="#212121"/>
</svg>
