<svg width="20" height="20" viewBox="0 0 20 20" fill="none" xmlns="http://www.w3.org/2000/svg">
<path d="M11.5 17C12.8807 17 14 15.8807 14 14.5V11.9L13 12V14.5C13 15.3284 12.3284 16 11.5 16H5.5C4.67157 16 4 15.3284 4 14.5V7.5C4 6.67157 4.67157 6 5.5 6H11.5C12.3284 6 13 6.67157 13 7.5V9.1L14 9V7.5C14 6.11929 12.8807 5 11.5 5H5.5C4.11929 5 3 6.11929 3 7.5V14.5C3 15.8807 4.11929 17 5.5 17H11.5Z" fill="#212121"/>
<path d="M14.5 15C15.8807 15 17 13.8807 17 12.5V5.5C17 4.11929 15.8807 3 14.5 3H8.5C7.11929 3 6 4.11929 6 5.5H7C7 4.67157 7.67157 4 8.5 4H14.5C15.3284 4 16 4.67157 16 5.5V12.5C16 13.3284 15.3284 14 14.5 14H13.5V15H14.5Z" fill="#212121"/>
<path d="M10.8535 12.3464C11.0488 12.5417 11.0488 12.8582 10.8535 13.0535C10.6583 13.2488 10.3417 13.2488 10.1464 13.0535L8.14643 11.0535C7.95117 10.8582 7.95117 10.5417 8.14643 10.3464L10.1464 8.3464C10.3417 8.15114 10.6583 8.15114 10.8535 8.3464C11.0488 8.54166 11.0488 8.85824 10.8535 9.0535L9.70709 10.1999H9.99997C11.5174 10.1999 12.8147 10.196 13.9813 9.84604C14.5381 9.67898 15.07 9.43094 15.5781 9.05521C15.8137 8.88104 16.152 8.91106 16.3276 9.14558C16.4824 9.35243 16.4539 9.64544 16.2486 9.80226C15.6279 10.2762 14.9674 10.5942 14.2686 10.8039C12.9481 11.2 11.5106 11.2 10.0429 11.2L9.70709 11.1999L10.8535 12.3464Z" fill="#212121"/>
</svg>
