<svg width="20" height="20" viewBox="0 0 20 20" fill="none" xmlns="http://www.w3.org/2000/svg">
<path fill-rule="evenodd" clip-rule="evenodd" d="M9.77736 2.08398C9.91646 2.17671 10 2.33283 10 2.5V4.36149L13.3036 3.04005C13.3364 3.02603 13.371 3.0154 13.407 3.00864C13.4647 2.99764 13.5229 2.99717 13.579 3.00621C13.6517 3.01775 13.7192 3.04495 13.7778 3.08425C13.8382 3.12453 13.8903 3.17824 13.9291 3.24323C13.9581 3.29157 13.9792 3.34522 13.9905 3.40237C13.9978 3.43883 14.0009 3.47548 14 3.51171V5.52745L16.303 4.54043C16.4575 4.47422 16.6349 4.49006 16.7753 4.58258C16.9156 4.6751 17 4.83193 17 5V7C17 7.27614 16.7762 7.5 16.5 7.5C16.2239 7.5 16 7.27614 16 7V5.75827L10 8.3297V9.43844C9.61892 9.79419 9.28988 10.205 9.02553 10.6581C9.00897 10.6084 9.00001 10.5553 9.00001 10.5V8C9.00001 7.79999 9.11921 7.61922 9.30305 7.54043L13 5.95602V4.23852L6.50001 6.83852V11.2615L8.46015 12.0455C8.37804 12.3733 8.32616 12.713 8.30764 13.0616L4.31431 11.4642C4.05792 11.3617 3.93321 11.0707 4.03577 10.8143C4.13833 10.5579 4.42931 10.4332 4.6857 10.5358L5.50001 10.8615V6.5C5.50001 6.29555 5.62448 6.1117 5.81431 6.03576L9.00001 4.76149V3.25L3.69232 5.46154C3.43742 5.56775 3.14468 5.44721 3.03847 5.19231C2.93226 4.93741 3.0528 4.64467 3.3077 4.53846L9.3077 2.03846C9.46202 1.97416 9.63826 1.99124 9.77736 2.08398ZM11.2143 11.0255C11.5176 12.0772 10.8716 13.1656 9.78369 13.436L9.32264 13.5506C9.30766 13.6984 9.29999 13.8483 9.29999 14.0001C9.29999 14.1827 9.31109 14.3626 9.33265 14.5393L9.68221 14.6197C10.8016 14.8771 11.4676 15.9979 11.1383 17.07L11.0119 17.4813C11.2691 17.6789 11.5489 17.8484 11.8466 17.985L12.1716 17.6503C12.9614 16.8368 14.2922 16.8375 15.0811 17.6518L15.4185 18C15.7109 17.8687 15.9863 17.706 16.2403 17.5159L16.0842 16.9745C15.7809 15.9228 16.4269 14.8344 17.5148 14.564L17.9754 14.4496C17.9903 14.3018 17.998 14.1519 17.998 14.0001C17.998 13.8174 17.9869 13.6374 17.9653 13.4606L17.6163 13.3803C16.4969 13.1229 15.8309 12.0021 16.1602 10.93L16.2864 10.5192C16.0292 10.3215 15.7494 10.152 15.4516 10.0153L15.1269 10.3497C14.3371 11.1632 13.0063 11.1625 12.2174 10.3482L11.8801 10C11.5876 10.1312 11.3122 10.2939 11.0582 10.4839L11.2143 11.0255ZM13.649 14.9729C13.0967 14.9729 12.649 14.5374 12.649 14.0001C12.649 13.4629 13.0967 13.0274 13.649 13.0274C14.2013 13.0274 14.649 13.4629 14.649 14.0001C14.649 14.5374 14.2013 14.9729 13.649 14.9729ZM2.5 6.5C2.77614 6.5 3 6.72386 3 7V13.691L9.5 16.941L9.62737 16.8773C9.86232 17.145 10.1236 17.3891 10.4071 17.6055L9.72361 17.9472C9.58284 18.0176 9.41716 18.0176 9.27639 17.9472L2.27639 14.4472C2.107 14.3625 2 14.1894 2 14V7C2 6.72386 2.22386 6.5 2.5 6.5Z" fill="black"/>
</svg>
