<?xml version="1.0" encoding="UTF-8"?>
<svg width="21px" height="11px" viewBox="0 0 21 11" version="1.1" xmlns="http://www.w3.org/2000/svg" xmlns:xlink="http://www.w3.org/1999/xlink">
    <title>闭眼</title>
    <g id="登录" stroke="none" stroke-width="1" fill="none" fill-rule="evenodd">
        <g id="-" transform="translate(-1918.000000, -334.000000)" fill="#B9BED1" fill-rule="nonzero">
            <g id="闭眼" transform="translate(1918.900000, 334.317500)">
                <path d="M19.5157683,1.47089421 L19.5157683,1.47089423 C19.716391,1.15764399 19.6584479,0.744868615 19.3793337,0.498960595 L19.3793337,0.498960603 C19.0801929,0.26757007 18.6501125,0.322493091 18.4187219,0.621633927 C18.4148791,0.626601931 18.4111048,0.631622579 18.4074001,0.636694411 C18.3723169,0.670478201 14.5196656,5.22089475 9.92247149,5.22089475 C5.47470569,5.22089475 1.43754287,0.636694411 1.40375908,0.601611245 L1.40375907,0.601611234 C1.14896047,0.325262273 0.723044137,0.295083239 0.431825437,0.532744279 L0.431825495,0.532744224 C0.155476535,0.787542822 0.125297501,1.21345916 0.362958439,1.50467786 C0.431825394,1.60862798 1.26602511,2.54547844 2.59268853,3.58627903 L0.820338971,5.42749555 L0.820338979,5.42749554 C0.561293045,5.69609798 0.569039562,6.12384258 0.837642817,6.38288851 C0.843469678,6.38850806 0.849397099,6.39402244 0.855422044,6.39942896 C0.922989622,6.5358635 1.09450732,6.60473045 1.26602502,6.60473045 L1.26602505,6.60473045 C1.4503345,6.60150824 1.62646905,6.52808013 1.75848875,6.39942896 L3.66857222,4.42047854 C4.5716389,5.04937677 5.64622327,5.63279682 6.83515278,6.05639356 L6.10360381,8.52520894 C5.99965368,8.9033275 6.20625455,9.29184108 6.59476813,9.39582654 L6.80136899,9.39582654 L6.80136895,9.39582654 C7.1188716,9.39902865 7.39528249,9.17952622 7.46405097,8.86954371 L8.19559995,6.39942896 C8.75563123,6.50207971 9.33905128,6.57094666 9.93416572,6.57094666 C10.5279808,6.57094666 11.1114008,6.50207971 11.6714321,6.39942896 L12.4042805,8.83446055 C12.4718481,9.14371216 12.7810997,9.36070803 13.0669625,9.36070803 C13.1358294,9.36070803 13.2046964,9.36070803 13.2384802,9.32692424 L13.2384802,9.32692424 C13.6135371,9.22388571 13.8340525,8.83631317 13.731014,8.46125626 C13.7305635,8.45961647 13.730107,8.4579783 13.7296447,8.45634181 L12.9980957,6.02131023 L12.9980948,6.02131054 C14.1224819,5.62075235 15.1879706,5.07096483 16.1659748,4.38669488 L18.0409751,6.33056215 L18.0409751,6.33056214 C18.1702214,6.46256356 18.3474005,6.53662295 18.5321394,6.53586362 L18.5321394,6.53586362 C18.923943,6.53192899 19.2383739,6.21111898 19.2344392,5.81931534 C19.2327353,5.64964113 19.1702748,5.48619581 19.0583869,5.3586285 L17.2860373,3.51741199 L17.2860374,3.51741189 C18.1003577,2.9169761 18.8478778,2.23087687 19.5157675,1.47089389 L19.5157683,1.47089421 Z" id="路径"></path>
            </g>
        </g>
    </g>
</svg>