<?xml version="1.0" encoding="UTF-8"?>
<svg width="20px" height="15px" viewBox="0 0 20 15" version="1.1" xmlns="http://www.w3.org/2000/svg" xmlns:xlink="http://www.w3.org/1999/xlink">
    <title>眼睛</title>
    <g id="登录" stroke="none" stroke-width="1" fill="none" fill-rule="evenodd">
        <g id="-" transform="translate(-1919.000000, -289.000000)" fill="#B9BED1" fill-rule="nonzero">
            <g id="眼睛" transform="translate(1919.000000, 289.000000)">
                <path d="M10,14.9998559 C6.33328122,14.9998559 3.0620669,12.6858748 0.193575705,8.16542187 L0.193575691,8.16542185 C-0.0645252352,7.75929562 -0.0645252352,7.24055785 0.19357572,6.83443397 C3.06204347,2.31396466 6.33328123,0 10,0 C13.6667188,0 16.9379331,2.31398107 19.8064243,6.83443397 L19.8064243,6.83443403 C20.0645252,7.24056025 20.0645252,7.75929802 19.8064242,8.16542191 C16.9379565,12.6858912 13.6667187,14.9998559 10,14.9998559 L10,14.9998559 Z M9.99999998,1.49997084 C6.96451803,1.49997084 4.1533076,3.46520488 1.55982969,7.49991973 C4.1533076,11.5346275 6.96454147,13.4998686 9.99999998,13.4998686 C13.0354819,13.4998686 15.8466924,11.5346346 18.4401703,7.49991973 C15.8466924,3.46521191 13.0354585,1.49997084 9.99999998,1.49997084 Z M9.99999998,10.9998821 C8.04976582,10.9998821 6.46877225,9.43289467 6.46877225,7.49991973 C6.46877225,5.56693541 8.04975879,3.99995736 9.99999998,3.99995736 C11.9502342,3.99995736 13.5312277,5.56694479 13.5312277,7.49991973 C13.5312277,9.43290405 11.9502412,10.9998821 9.99999998,10.9998821 Z M9.99999998,9.49989488 C11.1144905,9.49989488 12.017982,8.60440251 12.017982,7.4999127 C12.017982,6.39542289 11.1144905,5.49993052 9.99999998,5.49993052 C8.88550948,5.49993052 7.98201796,6.39542289 7.98201796,7.4999127 C7.98201796,8.60440251 8.88550948,9.49989488 9.99999998,9.49989488 Z" id="形状"></path>
            </g>
        </g>
    </g>
</svg>