<svg width="20" height="20" viewBox="0 0 20 20" fill="none" xmlns="http://www.w3.org/2000/svg">
<path d="M4 2C2.89543 2 2 2.89543 2 4V13C2 14.1046 2.89543 15 4 15H7V17H5.5C5.22386 17 5 17.2239 5 17.5C5 17.7761 5.22386 18 5.5 18H14.5C14.7761 18 15 17.7761 15 17.5C15 17.2239 14.7761 17 14.5 17H13V15H16C17.1046 15 18 14.1046 18 13V4C18 2.89543 17.1046 2 16 2H4ZM12 15V17H8V15H12ZM3 4C3 3.44772 3.44772 3 4 3H16C16.5523 3 17 3.44772 17 4V13C17 13.5523 16.5523 14 16 14H4C3.44772 14 3 13.5523 3 13V4Z" fill="#212121"/>
<circle cx="7" cy="8" r="1.5" stroke="#212121"/>
<path d="M8.5 7.5L10.5 6.5M8.5 9.5L10.5 11" stroke="#212121" stroke-linecap="round" stroke-linejoin="round"/>
<circle cx="11.5" cy="11.5" r="1" stroke="#212121"/>
<circle cx="12" cy="6" r="1.5" stroke="#212121"/>
</svg>
