<?xml version="1.0" encoding="UTF-8"?>
<svg width="16px" height="19px" viewBox="0 0 16 19" version="1.1" xmlns="http://www.w3.org/2000/svg" xmlns:xlink="http://www.w3.org/1999/xlink">
    <title>密码</title>
    <g id="登录" stroke="none" stroke-width="1" fill="none" fill-rule="evenodd">
        <g id="-" transform="translate(-1615.000000, -327.000000)" fill="#B9BED1" fill-rule="nonzero">
            <g id="密码" transform="translate(1615.712500, 327.702500)">
                <path d="M6.05679319,11.291485 C6.05679319,10.511231 6.69705014,9.87715154 7.485547,9.87715154 C8.27404386,9.87715154 8.91430081,10.5091845 8.91430081,11.291485 C8.91430081,11.7896984 8.65283918,12.2282028 8.26168895,12.479375 C8.26168895,12.479375 8.40168594,13.3131605 8.55814983,14.295167 C8.55814983,14.587497 8.31933254,14.8263142 8.02289062,14.8263142 L6.95235326,14.8263142 C6.65589239,14.8263142 6.41709406,14.5895624 6.41709406,14.295167 L6.71355493,12.479375 C6.31825482,12.2282028 6.05679319,11.7896984 6.05679319,11.291485 L6.05679319,11.291485 Z M4.62803938,7.40257018 L4.62803938,4.93003534 C4.62803938,3.367462 5.90650676,2.10341499 7.485547,2.10341499 C9.06458723,2.10341499 10.3430546,3.36952746 10.3430546,4.93003534 L10.3430546,7.4046167 L4.62803938,7.4046167 L4.62803938,7.40257018 Z M2.8431346,4.93003534 L2.8431346,7.4046167 L1.77259724,7.4046167 C0.984100379,7.4046167 0.343843431,8.03664967 0.343843431,8.81895013 L0.343843431,15.8865622 C0.343843431,16.6668161 0.984100379,17.3008956 1.77259724,17.3008956 L13.2005433,17.3008956 C13.9890401,17.3008956 14.6292971,16.6688626 14.6292971,15.8865622 L14.6292971,8.81690361 C14.6292971,8.03664967 13.9890401,7.40257018 13.2005433,7.40257018 L12.1300059,7.40257018 L12.1300059,4.93003534 C12.1300059,2.39163294 10.0507057,0.334977092 7.48759352,0.334977092 C4.92036932,0.334977092 2.8431346,2.39163294 2.8431346,4.93003534 Z" id="形状"></path>
            </g>
        </g>
    </g>
</svg>