<svg width="20" height="21" viewBox="0 0 20 21" fill="none" xmlns="http://www.w3.org/2000/svg">
<g id="&#230;&#154;&#130;&#229;&#129;&#156;&#229;&#189;&#149;&#229;&#136;&#182;">
<path id="Subtract" d="M4.5 4.89453C3.11929 4.89453 2 6.01382 2 7.39453V10.2313C2.31085 10.0837 2.64693 9.98048 3 9.92998V7.39453C3 6.5661 3.67157 5.89453 4.5 5.89453H11.5C12.3284 5.89453 13 6.5661 13 7.39453V14.3945C13 15.223 12.3284 15.8945 11.5 15.8945H11V16.8945H11.5C12.8807 16.8945 14 15.7752 14 14.3945V13.3945L16.4 15.1945C17.0592 15.6889 18 15.2186 18 14.3945V7.39452C18 6.57047 17.0592 6.10009 16.4 6.59452L14 8.39452V7.39453C14 6.01382 12.8807 4.89453 11.5 4.89453H4.5ZM1 13.3945C1 12.0138 2.11929 10.8945 3.5 10.8945H7.5C8.88071 10.8945 10 12.0138 10 13.3945V17.3945C10 18.7752 8.88071 19.8945 7.5 19.8945H3.5C2.11929 19.8945 1 18.7752 1 17.3945V13.3945ZM4 13.8945V16.8945C4 17.1707 4.22386 17.3945 4.5 17.3945C4.77614 17.3945 5 17.1707 5 16.8945V13.8945C5 13.6184 4.77614 13.3945 4.5 13.3945C4.22386 13.3945 4 13.6184 4 13.8945ZM6 13.8945V16.8945C6 17.1707 6.22386 17.3945 6.5 17.3945C6.77614 17.3945 7 17.1707 7 16.8945V13.8945C7 13.6184 6.77614 13.3945 6.5 13.3945C6.22386 13.3945 6 13.6184 6 13.8945Z" fill="#4E5969"/>
</g>
</svg>
