<svg xmlns="http://www.w3.org/2000/svg" width="16" height="16" viewBox="0 0 1024 1024"><defs/><path fill="#fff" d="M316.73433088 224.6601307c20.47063609 0 37.06649714-16.61332594 37.06649714-37.06533319L353.80082802 39.32531598c0-20.46947101-16.59702613-37.06533319-37.06649714-37.06533319-20.46947101 0-37.06533319 16.59586219-37.06533319 37.06533319l0 148.26831759C279.66899769 208.04680477 296.26485874 224.6601307 316.73433088 224.6601307zM594.72141653 94.92273379L427.93149326 94.92273379l0 74.13998024 166.78875933 0L594.72025259 94.92273379zM426.6088539 716.82162119c14.48033735 14.44424477 37.93389682 14.44424477 52.41074233 0l274.26367147-274.29510713c14.47684437-14.44191573 14.47684437-37.93273287 0-52.41190627-14.46170851-14.47917341-37.93622585-14.47917341-52.41539925 0L452.81364309 638.16999709 321.7757275 507.13906859c-14.46869447-14.48033735-37.94437575-14.48033735-52.42354915 0-14.46869447 14.47800946-14.46869447 37.93273287 0 52.41074232L426.6088539 716.82162119zM872.71316139 94.92273379l-55.59974571 0 0 74.13998024 55.59974571 0c40.93661411 0 74.1295013 33.19172323 74.1295013 74.1295013l0 630.10716785c0 40.93661411-33.19288718 74.1295013-74.1295013 74.1295013l-722.77108281 0c-40.93777806 0-74.13066638-33.19288718-74.13066639-74.1295013L75.81141219 243.19221533c0-40.93777806 33.19288718-74.1295013 74.13066639-74.1295013l55.59625273 0 0-74.13998024-55.59625273 0c-81.88603506 0-148.26016768 66.38461155-148.26016768 148.26948154l0 630.10716785c0 81.87672121 66.37529657 148.26016768 148.26016768 148.26016768l722.77108281 0c81.87439218 0 148.25900373-66.38344647 148.25900373-148.26016768L1020.97216398 243.19221533C1020.97216398 161.3085093 954.58871751 94.92273379 872.71316139 94.92273379zM705.91974514 224.6601307c20.46830706 0 37.06649714-16.61332594 37.06649713-37.06533319L742.98624227 39.32531598c0-20.46947101-16.59819008-37.06533319-37.06649713-37.06533319-20.47063609 0-37.06649714 16.59586219-37.06649714 37.06533319l0 148.26831759C668.85324686 208.04680477 685.4479451 224.6601307 705.91974514 224.6601307z"/></svg>