<svg width="20" height="21" viewBox="0 0 20 21" fill="none" xmlns="http://www.w3.org/2000/svg">
<g id="&#229;&#189;&#149;&#229;&#136;&#182;">
<path id="Shape" d="M4.5 4.32031C3.11929 4.32031 2 5.4396 2 6.82031V9.65713C2.31085 9.50946 2.64693 9.40626 3 9.35576V6.82031C3 5.99189 3.67157 5.32031 4.5 5.32031H11.5C12.3284 5.32031 13 5.99189 13 6.82031V13.8203C13 14.6487 12.3284 15.3203 11.5 15.3203H11V16.3203H11.5C12.8807 16.3203 14 15.201 14 13.8203V12.8203L16.4 14.6203C17.0592 15.1147 18 14.6443 18 13.8203V6.8203C18 5.99625 17.0592 5.52587 16.4 6.0203L14 7.8203V6.82031C14 5.4396 12.8807 4.32031 11.5 4.32031H4.5ZM14 9.0703L17 6.8203V13.8203L14 11.5703V9.0703ZM1 12.8203C1 11.4396 2.11929 10.3203 3.5 10.3203H7.5C8.88071 10.3203 10 11.4396 10 12.8203V16.8203C10 18.201 8.88071 19.3203 7.5 19.3203H3.5C2.11929 19.3203 1 18.201 1 16.8203V12.8203ZM5.02008 12.8543C4.94209 12.8014 4.85564 12.7749 4.7607 12.7749C4.69458 12.7749 4.63186 12.789 4.57252 12.8172C4.51319 12.8437 4.46148 12.8799 4.41741 12.9257C4.37333 12.9716 4.33773 13.0254 4.31061 13.0871C4.28518 13.1489 4.27246 13.2142 4.27246 13.283V16.3578C4.27246 16.4248 4.28518 16.4892 4.31061 16.5509C4.33773 16.6127 4.37333 16.6674 4.41741 16.715C4.46318 16.7608 4.51573 16.7979 4.57507 16.8261C4.6344 16.8526 4.69628 16.8658 4.7607 16.8658C4.80986 16.8658 4.85564 16.8588 4.89802 16.8446C4.94209 16.8305 4.98532 16.8094 5.02771 16.7811L7.32395 15.2146C7.39346 15.1688 7.44771 15.107 7.4867 15.0294C7.52569 14.9518 7.54519 14.8706 7.54519 14.786C7.54519 14.6978 7.52485 14.6166 7.48416 14.5425C7.44347 14.4667 7.38753 14.4058 7.31633 14.3599L5.02008 12.8543Z" fill="#4E5969"/>
</g>
</svg>
