<svg width="20" height="21" viewBox="0 0 20 21" fill="none" xmlns="http://www.w3.org/2000/svg">
<g id="Crop">
<path id="Shape" d="M6 2.82031C6 2.54417 5.77614 2.32031 5.5 2.32031C5.22386 2.32031 5 2.54417 5 2.82031V5.32031H2.5C2.22386 5.32031 2 5.54417 2 5.82031C2 6.09645 2.22386 6.32031 2.5 6.32031H5V12.8203C5 14.201 6.11929 15.3203 7.5 15.3203H14V17.8203C14 18.0965 14.2239 18.3203 14.5 18.3203C14.7761 18.3203 15 18.0965 15 17.8203V15.3203H17.5C17.7761 15.3203 18 15.0965 18 14.8203C18 14.5442 17.7761 14.3203 17.5 14.3203H7.5C6.67157 14.3203 6 13.6487 6 12.8203V2.82031ZM14 7.82031V13.3203H15V7.82031C15 6.4396 13.8807 5.32031 12.5 5.32031H7V6.32031H12.5C13.3284 6.32031 14 6.99189 14 7.82031Z" fill="#4E5969"/>
</g>
</svg>
