<svg width="20" height="21" viewBox="0 0 20 21" fill="none" xmlns="http://www.w3.org/2000/svg">
<g id="&#232;&#132;&#154;&#230;&#156;&#172;&#228;&#187;&#147;&#229;&#186;&#147;">
<g id="Group 1">
<path id="Union" fill-rule="evenodd" clip-rule="evenodd" d="M16 3.32031C17.1046 3.32031 18.0193 4.21607 18 5.32105L18 15.3196C18 16.4246 17.1046 17.3203 16 17.3203H4C2.89543 17.3203 2 16.4246 2 15.3196L2.00002 5.32105C2.00002 4.21607 2.89545 3.32031 4.00002 3.32031H16ZM17 5.32105C17 4.76856 16.5523 4.32068 16 4.32068H4.00002C3.44773 4.32068 3.00002 4.76856 3.00002 5.32105L2.99998 6.3149L17 6.3149L17 5.32105ZM17 7.31527L2.99998 7.31527L3 15.3196C3 15.8721 3.44771 16.3199 4 16.3199H16C16.5523 16.3199 17 15.8721 17 15.3196L17 7.31527ZM7.29997 10.7203C7.52088 10.5546 7.56565 10.2412 7.39997 10.0203C7.23428 9.7994 6.92088 9.75463 6.69997 9.92031L4.69997 11.4203C4.57407 11.5147 4.49997 11.6629 4.49997 11.8203C4.49997 11.9777 4.57407 12.1259 4.69997 12.2203L6.69997 13.7203C6.92088 13.886 7.23428 13.8412 7.39997 13.6203C7.56565 13.3994 7.52088 13.086 7.29997 12.9203L5.8333 11.8203L7.29997 10.7203ZM11.7572 8.89157C11.994 9.03364 12.0708 9.34077 11.9287 9.57756L8.92872 14.5776C8.78664 14.8144 8.47951 14.8911 8.24272 14.7491C8.00593 14.607 7.92915 14.2999 8.07122 14.0631L11.0712 9.06306C11.2133 8.82627 11.5204 8.74949 11.7572 8.89157ZM12.7 12.9203C12.4791 13.086 12.4343 13.3994 12.6 13.6203C12.7657 13.8412 13.0791 13.886 13.3 13.7203L15.3 12.2203C15.4259 12.1259 15.5 11.9777 15.5 11.8203C15.5 11.6629 15.4259 11.5147 15.3 11.4203L13.3 9.92031C13.0791 9.75463 12.7657 9.7994 12.6 10.0203C12.4343 10.2412 12.4791 10.5546 12.7 10.7203L14.1666 11.8203L12.7 12.9203Z" fill="#4E5969"/>
</g>
</g>
</svg>
