<?xml version="1.0" encoding="UTF-8"?>
<svg width="18px" height="21px" viewBox="0 0 18 21" version="1.1" xmlns="http://www.w3.org/2000/svg" xmlns:xlink="http://www.w3.org/1999/xlink">
    <title>账号</title>
    <g id="登录" stroke="none" stroke-width="1" fill="none" fill-rule="evenodd">
        <g id="-" transform="translate(-1615.000000, -260.000000)" fill="#B9BED1" fill-rule="nonzero">
            <g id="账号" transform="translate(1615.712500, 260.450000)">
                <path d="M4.96472472,8.64030761 L4.96472467,8.64030757 C6.92568787,10.6011611 10.1049566,10.6010759 12.0658072,8.64011291 C14.0266607,6.67914971 14.0265755,3.49988095 12.0656125,1.53903043 C11.5994571,1.07289941 11.046078,0.703125275 10.4370501,0.450806659 C9.22992426,-0.0491162727 7.80124456,-0.0491162727 6.59410348,0.450806659 L6.5941036,0.450806611 C4.03182955,1.51274237 2.81556746,4.45074433 3.87750321,7.01300314 C4.12968692,7.62147985 4.4991026,8.17440516 4.96471286,8.6402895 L4.96472472,8.64030761 Z M12.5386686,11.259269 L4.49192424,11.259269 C2.15076246,11.259269 0.246434818,13.163889 0.246434818,15.505063 C0.246434818,17.8462247 2.15105482,19.7505524 4.49192424,19.7505524 L12.5389427,19.7505524 C14.8801045,19.7505524 16.7847366,17.8462186 16.7847366,15.505063 C16.7847366,13.1639012 14.8804029,11.259269 12.5389427,11.259269 L12.5386686,11.259269 Z" id="形状"></path>
            </g>
        </g>
    </g>
</svg>