<svg width="20" height="21" viewBox="0 0 20 21" fill="none" xmlns="http://www.w3.org/2000/svg">
<g id="&#229;&#133;&#168;&#233;&#131;&#168;-20PX-&#233;&#157;&#162;&#230;&#128;&#167;">
<path id="Shape" d="M7.5 11.6362C8.32843 11.6362 9 12.3078 9 13.1362V17.1362C9 17.9647 8.32843 18.6362 7.5 18.6362H3.5C2.67157 18.6362 2 17.9647 2 17.1362V13.1362C2 12.3078 2.67157 11.6362 3.5 11.6362H7.5ZM16.5 11.6362C17.3284 11.6362 18 12.3078 18 13.1362V17.1362C18 17.9647 17.3284 18.6362 16.5 18.6362H12.5C11.6716 18.6362 11 17.9647 11 17.1362V13.1362C11 12.3078 11.6716 11.6362 12.5 11.6362H16.5ZM7.5 2.63623C8.32843 2.63623 9 3.3078 9 4.13623V8.13623C9 8.96466 8.32843 9.63623 7.5 9.63623H3.5C2.67157 9.63623 2 8.96466 2 8.13623V4.13623C2 3.3078 2.67157 2.63623 3.5 2.63623H7.5ZM16.5 2.63623C17.3284 2.63623 18 3.3078 18 4.13623V8.13623C18 8.96466 17.3284 9.63623 16.5 9.63623H12.5C11.6716 9.63623 11 8.96466 11 8.13623V4.13623C11 3.3078 11.6716 2.63623 12.5 2.63623H16.5Z" fill="currentColor"/>
</g>
</svg>
