<svg width="20" height="20" viewBox="0 0 20 20" fill="none" xmlns="http://www.w3.org/2000/svg">
<g id="BCM-28px-&#231;&#186;&#191;&#230;&#128;&#167;">
<g id="Group 2741">
<path id="Union" fill-rule="evenodd" clip-rule="evenodd" d="M6 3C6 2.44772 6.44772 2 7 2H13C13.5523 2 14 2.44772 14 3H6ZM5 5C5 4.44772 5.44772 4 6 4H14C14.5523 4 15 4.44772 15 5H5ZM5 7H15C15.5523 7 16 7.44772 16 8V15C16 15.5523 15.5523 16 15 16H5C4.44772 16 4 15.5523 4 15V8C4 7.44772 4.44772 7 5 7ZM3 8C3 6.89543 3.89543 6 5 6H15C16.1046 6 17 6.89543 17 8V15C17 16.1046 16.1046 17 15 17H5C3.89543 17 3 16.1046 3 15V8Z" fill="currentColor"/>
</g>
</g>
</svg>
