<svg width="28" height="28" viewBox="0 0 28 28" fill="none" xmlns="http://www.w3.org/2000/svg">
<g id="&#230;&#183;&#183;&#230;&#178;&#140;&#229;&#183;&#165;&#231;&#168;&#139;-28px-&#233;&#157;&#162;&#230;&#128;&#167;" clip-path="url(#clip0_1398_118703)">
<path id="Rectangle 31" d="M3.62229 8.96466C2.63252 8.70107 2.63192 7.29668 3.62146 7.03224L13.2028 4.47184C13.7094 4.33646 14.2426 4.33623 14.7494 4.47118L24.3777 7.03534C25.3675 7.29893 25.3681 8.70332 24.3785 8.96776L14.7972 11.5282C14.2906 11.6635 13.7574 11.6638 13.2506 11.5288L3.62229 8.96466Z" fill="currentColor"/>
<path id="Rectangle 33" d="M25 12.2198C25 11.5888 24.4227 11.1155 23.8039 11.2392L15.8039 12.8392C15.3365 12.9327 15 13.3431 15 13.8198V22.7802C15 23.4112 15.5773 23.8845 16.1961 23.7608L24.1961 22.1608C24.6635 22.0673 25 21.6569 25 21.1802V12.2198Z" fill="currentColor"/>
<path id="Subtract" fill-rule="evenodd" clip-rule="evenodd" d="M4.19612 11.2392C3.57732 11.1155 3 11.5888 3 12.2198V21.1802C3 21.6569 3.33646 22.0673 3.80388 22.1608L11.8039 23.7608C12.4227 23.8846 13 23.4113 13 22.7802V13.8198C13 13.3431 12.6635 12.9327 12.1961 12.8392L4.19612 11.2392ZM6.25 14C5.83579 14 5.5 14.3358 5.5 14.75V19.25C5.5 19.6642 5.83579 20 6.25 20C6.66421 20 7 19.6642 7 19.25V14.75C7 14.3358 6.66421 14 6.25 14Z" fill="currentColor"/>
</g>
<defs>
<clipPath id="clip0_1398_118703">
<rect width="28" height="28" fill="white"/>
</clipPath>
</defs>
</svg>
