<svg width="20" height="20" viewBox="0 0 20 20" fill="none" xmlns="http://www.w3.org/2000/svg">
<g id="&#230;&#183;&#183;&#230;&#178;&#140;&#229;&#183;&#165;&#231;&#168;&#139;-20px">
<g id="Group 23">
<path id="Union" d="M10.0167 7.34698L16.1204 5.71591L9.9833 4.08153L3.87963 5.7126L10.0167 7.34698ZM2.58735 6.4033C1.88037 6.21502 1.87994 5.21188 2.58676 5.023L9.79877 3.09575C9.91938 3.06352 10.0463 3.06346 10.167 3.09559L17.4127 5.02521C18.1196 5.21348 18.1201 6.21663 17.4132 6.40551L10.2012 8.33276C10.0806 8.36499 9.95365 8.36505 9.83301 8.33292L2.58735 6.4033ZM3 14.8944L8.14286 15.923V10.1055L3 9.07688V14.8944ZM2 8.72836C2 8.27762 2.41237 7.93955 2.85437 8.02795L8.56865 9.17081C8.90253 9.23758 9.14286 9.53073 9.14286 9.87122V16.2715C9.14286 16.7222 8.73048 17.0603 8.28849 16.9719L2.5742 15.8291C2.24033 15.7623 2 15.4691 2 15.1286V8.72836ZM17 9.07688L11.8571 10.1055V15.923L17 14.8944V9.07688ZM17.1456 8.02795C17.5876 7.93955 18 8.27762 18 8.72836V15.1286C18 15.4691 17.7597 15.7623 17.4258 15.8291L11.7115 16.9719C11.2695 17.0603 10.8571 16.7222 10.8571 16.2715V9.87122C10.8571 9.53073 11.0975 9.23758 11.4313 9.17081L17.1456 8.02795ZM4.42847 9.99996C4.15232 9.99996 3.92847 10.2238 3.92847 10.5V13.7857C3.92847 14.0618 4.15232 14.2857 4.42847 14.2857C4.70461 14.2857 4.92847 14.0618 4.92847 13.7857V10.5C4.92847 10.2238 4.70461 9.99996 4.42847 9.99996Z" fill="currentColor"/>
</g>
</g>
</svg>
