<svg width="28" height="28" viewBox="0 0 28 28" fill="none" xmlns="http://www.w3.org/2000/svg">
<g id="&#228;&#186;&#145;&#229;&#142;&#159;&#231;&#148;&#159;-28px-&#233;&#157;&#162;&#230;&#128;&#167;">
<g id="Group 22">
<path id="Union" d="M15.8034 2.29792C14.7264 1.7145 13.4275 1.7145 12.3504 2.29792L3.89847 6.87604C2.72871 7.50967 2 8.73313 2 10.0635V18.4365C2 19.7669 2.72871 20.9903 3.89847 21.6239L8.06218 23.8793C8.5478 24.1423 9.15471 23.9619 9.41775 23.4763C9.6808 22.9907 9.50036 22.3837 9.01474 22.1207L4.85104 19.8654C4.32666 19.5813 4 19.0329 4 18.4365V10.0635C4 9.46711 4.32666 8.91866 4.85104 8.63463L13.303 4.0565C13.7858 3.79497 14.3681 3.79497 14.8509 4.0565L23.3028 8.63463C23.8272 8.91866 24.1538 9.46711 24.1538 10.0635V18.4365C24.1538 19.0329 23.8272 19.5813 23.3028 19.8654L19.1391 22.1207C18.6535 22.3837 18.473 22.9907 18.7361 23.4763C18.9991 23.9619 19.606 24.1423 20.0917 23.8793L24.2554 21.6239C25.4251 20.9903 26.1538 19.7669 26.1538 18.4365V10.0635C26.1538 8.73313 25.4251 7.50966 24.2554 6.87604L15.8034 2.29792ZM11.25 9.99999C11.25 8.48121 12.4812 7.24999 14 7.24999C15.5188 7.24999 16.75 8.48121 16.75 9.99999C16.75 11.166 16.0243 12.1625 15 12.5625V25C15 25.5523 14.5523 26 14 26C13.4477 26 13 25.5523 13 25V12.5625C11.9757 12.1625 11.25 11.166 11.25 9.99999ZM5.25 14C5.25 12.4812 6.48122 11.25 8 11.25C9.51878 11.25 10.75 12.4812 10.75 14C10.75 14.4142 10.6584 14.807 10.4944 15.1593L11.8 16.9C11.9298 17.0731 12 17.2836 12 17.5V22.5C12 23.0523 11.5523 23.5 11 23.5C10.4477 23.5 10 23.0523 10 22.5V17.8333L9.0361 16.5481C8.71633 16.6783 8.36654 16.75 8 16.75C6.48122 16.75 5.25 15.5188 5.25 14ZM17.25 14C17.25 12.4812 18.4812 11.25 20 11.25C21.5188 11.25 22.75 12.4812 22.75 14C22.75 15.5188 21.5188 16.75 20 16.75C19.6335 16.75 19.2837 16.6783 18.9639 16.5481L18 17.8333V22.5C18 23.0523 17.5523 23.5 17 23.5C16.4477 23.5 16 23.0523 16 22.5V17.5C16 17.2836 16.0702 17.0731 16.2 16.9L17.5056 15.1593C17.3416 14.807 17.25 14.4142 17.25 14Z" fill="currentColor"/>
</g>
</g>
</svg>
