<svg width="20" height="20" viewBox="0 0 20 20" fill="none" xmlns="http://www.w3.org/2000/svg">
<g id="&#228;&#186;&#145;&#229;&#142;&#159;&#231;&#148;&#159;-20px">
<g id="Group 22">
<path id="Union" d="M8.92374 1.82989C9.62942 1.44765 10.4804 1.44765 11.1861 1.82989L17.2232 5.09998C17.9896 5.51512 18.467 6.3167 18.467 7.1883V13.169C18.467 14.0406 17.9896 14.8422 17.2232 15.2574L14.2491 16.8683C14.0063 16.9998 13.7028 16.9096 13.5713 16.6668C13.4398 16.424 13.53 16.1206 13.7728 15.989L16.7469 14.3781C17.1906 14.1377 17.467 13.6737 17.467 13.169V7.1883C17.467 6.68369 17.1906 6.21962 16.7469 5.97928L10.7098 2.70919C10.3012 2.48789 9.80857 2.48789 9.40002 2.70919L3.36293 5.97928C2.91923 6.21962 2.64282 6.68369 2.64282 7.1883V13.169C2.64282 13.6737 2.91923 14.1377 3.36293 14.3781L6.33701 15.989C6.57982 16.1206 6.67003 16.424 6.53851 16.6668C6.40699 16.9096 6.10353 16.9998 5.86072 16.8683L2.88665 15.2574C2.12025 14.8422 1.64282 14.0407 1.64282 13.169V7.1883C1.64282 6.3167 2.12025 5.51512 2.88665 5.09998L8.92374 1.82989ZM10.0001 6.2144C10.5129 6.2144 10.9287 6.63014 10.9287 7.14298C10.9287 7.65444 10.5152 8.06933 10.0042 8.07154L10 8.07152L9.99586 8.07154C9.48498 8.06925 9.07153 7.6544 9.07153 7.14298C9.07153 6.63014 9.48727 6.2144 10.0001 6.2144ZM10.5 9.00613C11.3228 8.78593 11.9287 8.03521 11.9287 7.14298C11.9287 6.07786 11.0652 5.2144 10.0001 5.2144C8.93498 5.2144 8.07153 6.07786 8.07153 7.14298C8.07153 8.03513 8.67732 8.7858 9.5 9.00607V17.8572C9.5 18.1334 9.72386 18.3572 10 18.3572C10.2761 18.3572 10.5 18.1334 10.5 17.8572V9.00613ZM4.78564 10.0001C4.78564 9.48726 5.20138 9.07152 5.71422 9.07152C6.22705 9.07152 6.64279 9.48726 6.64279 10.0001C6.64279 10.5129 6.22705 10.9287 5.71422 10.9287C5.20138 10.9287 4.78564 10.5129 4.78564 10.0001ZM5.71422 8.07152C4.6491 8.07152 3.78564 8.93497 3.78564 10.0001C3.78564 11.0652 4.6491 11.9287 5.71422 11.9287C6.04575 11.9287 6.35775 11.845 6.63024 11.6977L7.35707 12.6668V16.0715C7.35707 16.3477 7.58093 16.5715 7.85707 16.5715C8.13322 16.5715 8.35707 16.3477 8.35707 16.0715V12.5001C8.35707 12.3919 8.32198 12.2866 8.25707 12.2001L7.36067 11.0049C7.53964 10.7123 7.64279 10.3682 7.64279 10.0001C7.64279 8.93497 6.77934 8.07152 5.71422 8.07152ZM14.2857 9.07152C13.7729 9.07152 13.3572 9.48726 13.3572 10.0001C13.3572 10.5129 13.7729 10.9287 14.2857 10.9287C14.7986 10.9287 15.2143 10.5129 15.2143 10.0001C15.2143 9.48726 14.7986 9.07152 14.2857 9.07152ZM12.3572 10.0001C12.3572 8.93497 13.2206 8.07152 14.2857 8.07152C15.3509 8.07152 16.2143 8.93497 16.2143 10.0001C16.2143 11.0652 15.3509 11.9287 14.2857 11.9287C13.9542 11.9287 13.6422 11.845 13.3697 11.6977L12.6429 12.6668V16.0715C12.6429 16.3477 12.4191 16.5715 12.1429 16.5715C11.8668 16.5715 11.6429 16.3477 11.6429 16.0715V12.5001C11.6429 12.3919 11.678 12.2866 11.7429 12.2001L12.6393 11.0049C12.4603 10.7123 12.3572 10.3682 12.3572 10.0001Z" fill="currentColor"/>
</g>
</g>
</svg>
