<svg width="20" height="20" viewBox="0 0 20 20" fill="none" xmlns="http://www.w3.org/2000/svg">
<g id="DR-20PX">
<g id="Group 14">
<g id="Group 15">
<path id="Union" d="M16.4692 5.99774C16.7958 6.17128 17 6.51096 17 6.88086V12.9764C17 13.3463 16.7958 13.686 16.4692 13.8596L10.4692 17.0471C10.1758 17.2029 9.8242 17.2029 9.53084 17.0471L3.53084 13.8596C3.20418 13.686 3 13.3463 3 12.9764V6.88086C3 6.51096 3.20418 6.17128 3.53084 5.99774L9.53085 2.81024C9.8242 2.6544 10.1758 2.6544 10.4692 2.81024L16.4692 5.99774ZM10.9383 1.92713C10.3516 1.61544 9.6484 1.61544 9.06169 1.92713L3.06169 5.11463C2.40837 5.4617 2 6.14107 2 6.88086V12.9764C2 13.7162 2.40837 14.3956 3.06169 14.7427L9.06169 17.9302C9.6484 18.2419 10.3516 18.2419 10.9383 17.9302L16.9383 14.7427C17.5916 14.3956 18 13.7162 18 12.9764V6.88086C18 6.14107 17.5916 5.4617 16.9383 5.11463L10.9383 1.92713ZM4.83351 7.927C4.83351 7.12272 5.65299 6.57824 6.39444 6.88989L7.82493 7.49117L10.9336 5.71268L10.0743 5.29129C10.0374 5.2732 9.99395 5.27439 9.95811 5.29448L7.91096 6.44178C7.67007 6.57678 7.36535 6.49094 7.23035 6.25005C7.09534 6.00916 7.18118 5.70444 7.42207 5.56944L9.46922 4.42213C9.79177 4.24136 10.1826 4.23063 10.5146 4.39343L12.1967 5.21835L14.4298 6.03966C14.8724 6.20244 15.1665 6.62396 15.1665 7.09552V11.6275C15.1665 12.4202 14.3686 12.9643 13.6307 12.6748L11.9104 11.9999L8.73313 13.8177L9.59243 14.2391C9.62932 14.2572 9.67274 14.256 9.70858 14.2359L11.7557 13.0886C11.9966 12.9536 12.3013 13.0395 12.4363 13.2803C12.5714 13.5212 12.4855 13.826 12.2446 13.961L10.1975 15.1083C9.87492 15.289 9.48413 15.2998 9.15214 15.137L7.45972 14.307L5.52258 13.4928C5.10508 13.3173 4.83351 12.9086 4.83351 12.4557V7.927ZM10.7158 11.5313L9.75949 11.1561C9.7246 11.1424 9.68542 11.1451 9.65273 11.1634L7.57763 12.3264C7.33674 12.4614 7.03202 12.3756 6.89701 12.1347C6.76201 11.8938 6.84785 11.5891 7.08874 11.4541L9.16383 10.2911C9.45805 10.1262 9.81072 10.102 10.1247 10.2252L13.9959 11.7439C14.0779 11.776 14.1665 11.7156 14.1665 11.6275V7.09552C14.1665 7.04312 14.1338 6.99628 14.0847 6.9782L12.0459 6.22837L8.98579 7.97912L9.91249 8.36864C9.94801 8.38357 9.98843 8.38128 10.022 8.36245L12.0891 7.204C12.33 7.069 12.6347 7.15484 12.7697 7.39573C12.9047 7.63662 12.8188 7.94134 12.578 8.07635L10.5109 9.23479C10.2084 9.40432 9.84467 9.42488 9.525 9.29051L6.00695 7.81177C5.92456 7.77714 5.83351 7.83764 5.83351 7.927V12.4557C5.83351 12.506 5.86368 12.5514 5.91007 12.5709L7.63291 13.2951L10.7158 11.5313Z" fill="currentColor"/>
</g>
</g>
</g>
</svg>
