<svg width="28" height="28" viewBox="0 0 28 28" fill="none" xmlns="http://www.w3.org/2000/svg">
<g id="DR-28px-&#233;&#157;&#162;&#230;&#128;&#167;">
<g id="Group 14">
<g id="Group 15">
<path id="Subtract" fill-rule="evenodd" clip-rule="evenodd" d="M12.7498 2.67721C13.5297 2.25473 14.4703 2.25473 15.2503 2.67721L23.7022 7.25533C24.5493 7.71416 25.0769 8.60012 25.0769 9.56348V18.4365C25.0769 19.3999 24.5493 20.2858 23.7022 20.7447L15.2503 25.3228C14.4703 25.7453 13.5297 25.7453 12.7498 25.3228L4.29785 20.7447C3.45078 20.2858 2.9231 19.3999 2.9231 18.4365V9.56348C2.9231 8.60012 3.45078 7.71416 4.29785 7.25533L12.7498 2.67721ZM21.2114 16.3999V9.99098C21.2114 9.31361 20.7912 8.70729 20.157 8.46945L17.0693 7.31156L14.7541 6.15398C14.2682 5.911 13.6929 5.92696 13.2212 6.19653L10.397 7.81035C10.0374 8.01585 9.91243 8.474 10.1179 8.83363C10.3234 9.19327 10.7816 9.31822 11.1412 9.11271L13.9654 7.49889C14.0017 7.47816 14.0459 7.47693 14.0833 7.49562L15.1936 8.05076L10.9836 10.5066L9.05369 9.67953C7.98141 9.21998 6.78857 10.0065 6.78857 11.1731V17.5769C6.78857 18.2269 7.17597 18.8144 7.77346 19.0705L10.4536 20.2192L12.7843 21.3845C13.2703 21.6275 13.8455 21.6115 14.3173 21.3419L17.1414 19.7281C17.5011 19.5226 17.626 19.0645 17.4205 18.7048C17.215 18.3452 16.7569 18.2203 16.3972 18.4258L13.5731 20.0396C13.5368 20.0603 13.4925 20.0615 13.4551 20.0429L12.3449 19.4877L16.6509 16.9759L18.9829 17.9087C20.0503 18.3356 21.2114 17.5495 21.2114 16.3999ZM16.8393 8.82732L12.6997 11.2421L13.8951 11.7544C13.9311 11.7698 13.9723 11.7675 14.0063 11.748L16.8588 10.1181C17.2184 9.91256 17.6766 10.0375 17.8821 10.3971C18.0876 10.7568 17.9626 11.2149 17.603 11.4204L14.7505 13.0504C14.3081 13.3032 13.7726 13.3339 13.3042 13.1331L8.46282 11.0583C8.38033 11.0229 8.28857 11.0834 8.28857 11.1731V17.5769C8.28857 17.6269 8.31837 17.6721 8.36433 17.6918L10.7177 18.7004L14.8849 16.2695L13.6521 15.7763C13.6167 15.7622 13.5767 15.7649 13.5436 15.7839L10.6797 17.4204C10.32 17.6259 9.86191 17.501 9.6564 17.1413C9.45089 16.7817 9.57584 16.3235 9.93548 16.118L12.7994 14.4815C13.2298 14.2356 13.7489 14.1995 14.2092 14.3836L19.54 16.516C19.6221 16.5488 19.7114 16.4883 19.7114 16.3999V9.99098C19.7114 9.93888 19.6791 9.89223 19.6303 9.87394L16.8393 8.82732Z" fill="currentColor"/>
</g>
</g>
</g>
</svg>
