<svg width="20" height="20" viewBox="0 0 20 20" fill="none" xmlns="http://www.w3.org/2000/svg">
<g id="IT&#229;&#186;&#148;&#230;&#128;&#165;-20px">
<g id="Group 2">
<path id="Shape" d="M4 2C2.89543 2 2 2.89543 2 4V13C2 14.1046 2.89543 15 4 15H7V17H5.5C5.22386 17 5 17.2239 5 17.5C5 17.7761 5.22386 18 5.5 18H14.5C14.7761 18 15 17.7761 15 17.5C15 17.2239 14.7761 17 14.5 17H13V15H16C17.1046 15 18 14.1046 18 13V4C18 2.89543 17.1046 2 16 2H4ZM12 15V17H8V15H12ZM3 4C3 3.44772 3.44772 3 4 3H16C16.5523 3 17 3.44772 17 4V13C17 13.5523 16.5523 14 16 14H4C3.44772 14 3 13.5523 3 13V4Z" fill="currentColor"/>
</g>
<path id="Union" d="M16 3H4C3.44772 3 3 3.44772 3 4V13C3 13.5523 3.44772 14 4 14H7.5H12.5H16C16.5523 14 17 13.5523 17 13V4C17 3.44772 16.5523 3 16 3ZM16 15H13V17H14.5C14.7761 17 15 17.2239 15 17.5C15 17.7761 14.7761 18 14.5 18H12.5H7.5H5.5C5.22386 18 5 17.7761 5 17.5C5 17.2239 5.22386 17 5.5 17H7V15H4C2.89543 15 2 14.1046 2 13V4C2 2.89543 2.89543 2 4 2H16C17.1046 2 18 2.89543 18 4V13C18 14.1046 17.1046 15 16 15ZM8 17H12V15H8V17ZM12.3536 4.64645C12.5488 4.84171 12.5488 5.15829 12.3536 5.35355L9.70711 8H12C12.2083 8 12.3948 8.12914 12.4681 8.32414C12.5413 8.51913 12.486 8.73912 12.3293 8.87629L8.32925 12.3763C8.12143 12.5581 7.80555 12.5371 7.62371 12.3293C7.44187 12.1214 7.46293 11.8056 7.67075 11.6237L10.6693 9H8.5C8.29777 9 8.11545 8.87818 8.03806 8.69134C7.96067 8.5045 8.00345 8.28945 8.14645 8.14645L11.6464 4.64645C11.8417 4.45118 12.1583 4.45118 12.3536 4.64645Z" fill="currentColor"/>
</g>
</svg>
