<svg width="28" height="28" viewBox="0 0 28 28" fill="none" xmlns="http://www.w3.org/2000/svg">
<g id="IT&#229;&#186;&#148;&#230;&#128;&#165;-28px-&#233;&#157;&#162;&#230;&#128;&#167;">
<path id="Union" d="M3 5.8C3 4.2536 4.2536 3 5.8 3H22.2C23.7464 3 25 4.2536 25 5.8V18.2C25 19.7464 23.7464 21 22.2 21H18V23.5H20.25C20.6642 23.5 21 23.8358 21 24.25C21 24.6642 20.6642 25 20.25 25H7.75C7.33579 25 7 24.6642 7 24.25C7 23.8358 7.33579 23.5 7.75 23.5H10V21H5.8C4.2536 21 3 19.7464 3 18.2V5.8ZM11.5 21V23.5H16.5V21H11.5ZM16.995 7.00503C16.7216 6.73166 16.2784 6.73166 16.005 7.00503L11.505 11.505C11.3048 11.7052 11.2449 12.0063 11.3533 12.2679C11.4616 12.5295 11.7169 12.7 12 12.7H15.039L11.0567 15.9582C10.7575 16.203 10.7134 16.6441 10.9582 16.9433C11.203 17.2425 11.6441 17.2866 11.9433 17.0418L17.4433 12.5418C17.6723 12.3544 17.7587 12.0433 17.6593 11.7647C17.5598 11.486 17.2959 11.3 17 11.3H13.6899L16.995 7.99497C17.2683 7.72161 17.2683 7.27839 16.995 7.00503Z" fill="currentColor"/>
</g>
</svg>
