<svg width="20" height="20" viewBox="0 0 20 20" fill="none" xmlns="http://www.w3.org/2000/svg">
<g id="RDP-20px">
<g id="Group 21">
<g id="Group 25">
<path id="Union" d="M10.4105 2.35032C10.1538 2.21396 9.84618 2.21396 9.58949 2.35032L3.46449 5.60423C3.17866 5.75607 3 6.0533 3 6.37695V12.6228C3 12.9465 3.17866 13.2437 3.46449 13.3955L9.58949 16.6494C9.84618 16.7858 10.1538 16.7858 10.4105 16.6494L16.5355 13.3955C16.8213 13.2437 17 12.9465 17 12.6228V6.37695C17 6.0533 16.8213 5.75607 16.5355 5.60423L10.4105 2.35032ZM9.12033 1.4672C9.67038 1.17499 10.3296 1.17499 10.8797 1.4672L17.0047 4.72111C17.6172 5.0465 18 5.6834 18 6.37695V12.6228C18 13.3164 17.6172 13.9533 17.0047 14.2787L10.8797 17.5326C10.3296 17.8248 9.67038 17.8248 9.12033 17.5326L2.99533 14.2787C2.38285 13.9533 2 13.3164 2 12.6228V6.37695C2 5.6834 2.38285 5.0465 2.99533 4.72111L9.12033 1.4672ZM9.96992 8.44515L6.73349 6.5766C6.49435 6.43853 6.18855 6.52046 6.05048 6.75961C5.91241 6.99876 5.99435 7.30455 6.23349 7.44262L9.46992 9.31117C9.50034 9.32873 9.53183 9.34274 9.56392 9.35331V12.9999C9.56392 13.276 9.78778 13.4999 10.0639 13.4999C10.3401 13.4999 10.5639 13.2761 10.5639 12.9999V9.37051L13.7859 7.51028C14.0251 7.37221 14.107 7.06641 13.969 6.82727C13.8309 6.58812 13.5251 6.50618 13.2859 6.64425L10.0568 8.50858C10.0307 8.48484 10.0017 8.46351 9.96992 8.44515Z" fill="currentColor"/>
</g>
</g>
</g>
</svg>
