<svg width="28" height="28" viewBox="0 0 28 28" fill="none" xmlns="http://www.w3.org/2000/svg">
<g id="RDP-28px-&#233;&#157;&#162;&#230;&#128;&#167;">
<g id="Group 21">
<path id="Subtract" fill-rule="evenodd" clip-rule="evenodd" d="M12.8267 2.67721C13.6066 2.25473 14.5472 2.25473 15.3272 2.67721L23.7791 7.25533C24.6262 7.71416 25.1538 8.60012 25.1538 9.56348V18.4365C25.1538 19.3999 24.6262 20.2858 23.7791 20.7447L15.3272 25.3228C14.5472 25.7453 13.6066 25.7453 12.8267 25.3228L4.37476 20.7447C3.52769 20.2858 3 19.3999 3 18.4365V9.56348C3 8.60012 3.52769 7.71416 4.37476 7.25533L12.8267 2.67721ZM8.37513 11.3997L13 14.0699V19.25C13 19.6642 13.3358 20 13.75 20C14.1642 20 14.5 19.6642 14.5 19.25V13.9332L18.8883 11.3996C19.247 11.1925 19.3699 10.7338 19.1628 10.3751C18.9557 10.0164 18.497 9.8935 18.1383 10.1006L13.6317 12.7025L9.12513 10.1006C8.76641 9.89353 8.30771 10.0164 8.10061 10.3752C7.8935 10.7339 8.01641 11.1926 8.37513 11.3997Z" fill="currentColor"/>
</g>
</g>
</svg>
