<svg width="20" height="21" viewBox="0 0 20 21" fill="none" xmlns="http://www.w3.org/2000/svg">
<g id="&#230;&#159;&#165;&#231;&#156;&#139;&#230;&#157;&#131;&#233;&#153;&#144;-20PX">
<path id="Shape" d="M8 9.04541C8 9.87384 7.32843 10.5454 6.5 10.5454C5.67157 10.5454 5 9.87384 5 9.04541C5 8.21698 5.67157 7.54541 6.5 7.54541C7.32843 7.54541 8 8.21698 8 9.04541ZM4 12.2442C4 11.7202 4.42479 11.2954 4.94879 11.2954H8.05121C8.57521 11.2954 9 11.7202 9 12.2442C9 13.0914 8.42338 13.83 7.60144 14.0354L7.54243 14.0502C6.85801 14.2213 6.14199 14.2213 5.45757 14.0502L5.39856 14.0354C4.57661 13.83 4 13.0914 4 12.2442ZM11.5 8.54541C11.2239 8.54541 11 8.76927 11 9.04541C11 9.32155 11.2239 9.54541 11.5 9.54541H14.5C14.7761 9.54541 15 9.32155 15 9.04541C15 8.76927 14.7761 8.54541 14.5 8.54541H11.5ZM11.5 11.5454C11.2239 11.5454 11 11.7693 11 12.0454C11 12.3216 11.2239 12.5454 11.5 12.5454H14.5C14.7761 12.5454 15 12.3216 15 12.0454C15 11.7693 14.7761 11.5454 14.5 11.5454H11.5ZM2 6.29541C2 5.32891 2.7835 4.54541 3.75 4.54541H16.25C17.2165 4.54541 18 5.32891 18 6.29541V14.7954C18 15.7619 17.2165 16.5454 16.25 16.5454H3.75C2.7835 16.5454 2 15.7619 2 14.7954V6.29541ZM3.75 5.54541C3.33579 5.54541 3 5.8812 3 6.29541V14.7954C3 15.2096 3.33579 15.5454 3.75 15.5454H16.25C16.6642 15.5454 17 15.2096 17 14.7954V6.29541C17 5.8812 16.6642 5.54541 16.25 5.54541H3.75Z" fill="currentColor"/>
</g>
</svg>
