<svg width="20" height="21" viewBox="0 0 20 21" fill="none" xmlns="http://www.w3.org/2000/svg">
<g id="&#229;&#190;&#133;&#229;&#138;&#158;-20PX">
<path id="Shape" d="M3.5 6.04541C3.31786 6.04541 3.14709 6.09411 3 6.17919C2.7011 6.3521 2.5 6.67527 2.5 7.04541C2.5 7.41555 2.7011 7.73872 3 7.91163C3.14709 7.99671 3.31786 8.04541 3.5 8.04541C3.68214 8.04541 3.85291 7.99671 4 7.91163C4.2989 7.73872 4.5 7.41555 4.5 7.04541C4.5 6.67527 4.2989 6.3521 4 6.17919C3.85291 6.09411 3.68214 6.04541 3.5 6.04541ZM3.5 5.04541C3.39744 5.04541 3.29668 5.05313 3.19828 5.06802C3.57881 4.17301 4.46611 3.54541 5.5 3.54541H14.5C15.8807 3.54541 17 4.6647 17 6.04541V15.0454C17 16.4261 15.8807 17.5454 14.5 17.5454H5.5C4.11929 17.5454 3 16.4261 3 15.0454V8.9824C3.15981 9.02353 3.32735 9.04541 3.5 9.04541C3.67265 9.04541 3.84019 9.02353 4 8.9824V15.0454C4 15.8738 4.67157 16.5454 5.5 16.5454H14.5C15.3284 16.5454 16 15.8738 16 15.0454V6.04541C16 5.21698 15.3284 4.54541 14.5 4.54541H5.5C4.98679 4.54541 4.53378 4.80315 4.26334 5.19624C4.02812 5.09904 3.77032 5.04541 3.5 5.04541ZM7 9.04541C7 8.76927 7.22386 8.54541 7.5 8.54541H12.5C12.7761 8.54541 13 8.76927 13 9.04541C13 9.32155 12.7761 9.54541 12.5 9.54541H7.5C7.22386 9.54541 7 9.32155 7 9.04541ZM7.5 11.5454C7.22386 11.5454 7 11.7693 7 12.0454C7 12.3216 7.22386 12.5454 7.5 12.5454H10.5C10.7761 12.5454 11 12.3216 11 12.0454C11 11.7693 10.7761 11.5454 10.5 11.5454H7.5Z" fill="currentColor"/>
</g>
</svg>
