<svg width="20" height="21" viewBox="0 0 20 21" fill="none" xmlns="http://www.w3.org/2000/svg">
<g id="&#229;&#133;&#172;&#229;&#145;&#138;-20PX">
<path id="Shape" d="M5 7.04541C5 6.76927 5.22386 6.54541 5.5 6.54541H12.5C12.7761 6.54541 13 6.76927 13 7.04541C13 7.32155 12.7761 7.54541 12.5 7.54541H5.5C5.22386 7.54541 5 7.32155 5 7.04541ZM10.5 9.54541C10.2239 9.54541 10 9.76927 10 10.0454C10 10.3216 10.2239 10.5454 10.5 10.5454H12.5C12.7761 10.5454 13 10.3216 13 10.0454C13 9.76927 12.7761 9.54541 12.5 9.54541H10.5ZM10 13.0454C10 12.7693 10.2239 12.5454 10.5 12.5454H12.5C12.7761 12.5454 13 12.7693 13 13.0454C13 13.3216 12.7761 13.5454 12.5 13.5454H10.5C10.2239 13.5454 10 13.3216 10 13.0454ZM5.5 9.54541C5.22386 9.54541 5 9.76927 5 10.0454V13.0454C5 13.3216 5.22386 13.5454 5.5 13.5454H8.5C8.77614 13.5454 9 13.3216 9 13.0454V10.0454C9 9.76927 8.77614 9.54541 8.5 9.54541H5.5ZM6 12.5454V10.5454H8V12.5454H6ZM2 5.54541C2 4.44084 2.89543 3.54541 4 3.54541H14C15.1046 3.54541 16 4.44084 16 5.54541V6.54541C17.1046 6.54541 18 7.44084 18 8.54541V15.0454C18 16.4261 16.8807 17.5454 15.5 17.5454H4.5C3.11929 17.5454 2 16.4261 2 15.0454V5.54541ZM15 5.54541C15 4.99313 14.5523 4.54541 14 4.54541L4 4.54541C3.44771 4.54541 3 4.99313 3 5.54541L3 15.0454C3 15.8738 3.67157 16.5454 4.5 16.5454H15.5C16.3284 16.5454 17 15.8738 17 15.0454V8.54541C17 7.99313 16.5523 7.54541 16 7.54541V15.0454C16 15.3216 15.7761 15.5454 15.5 15.5454C15.2239 15.5454 15 15.3216 15 15.0454V5.54541Z" fill="currentColor"/>
</g>
</svg>
