<svg width="20" height="21" viewBox="0 0 20 21" fill="none" xmlns="http://www.w3.org/2000/svg">
<g id="&#229;&#133;&#179;&#232;&#129;&#148;&#231;&#148;&#168;&#230;&#136;&#183;-20PX">
<path id="Union" d="M6 6.54541C6 4.33627 7.79086 2.54541 10 2.54541C12.2091 2.54541 14 4.33627 14 6.54541C14 8.75455 12.2091 10.5454 10 10.5454C7.79086 10.5454 6 8.75455 6 6.54541ZM10 3.54541C8.34315 3.54541 7 4.88856 7 6.54541C7 8.20226 8.34315 9.54541 10 9.54541C11.6569 9.54541 13 8.20226 13 6.54541C13 4.88856 11.6569 3.54541 10 3.54541ZM3 13.5454C3 12.4323 3.90315 11.5454 5.00873 11.5454H11V11.546C10.1895 11.5625 9.45593 11.9406 8.91711 12.5454L5.00873 12.5454C4.44786 12.5454 4 12.9921 4 13.5454C4 14.8542 4.62226 15.8291 5.67262 16.4988C6.50361 17.0287 7.60644 17.3666 8.86989 17.4912C9.35247 18.057 10.0011 18.4361 10.7255 18.5252C10.4863 18.5387 10.2443 18.5454 10 18.5454C8.14526 18.5454 6.41697 18.1594 5.13499 17.342C3.83281 16.5117 3 15.2366 3 13.5454ZM9 15.0454C9 13.6647 10.1193 12.5454 11.5 12.5454H12C12.2761 12.5454 12.5 12.7693 12.5 13.0454C12.5 13.3216 12.2761 13.5454 12 13.5454H11.5C10.6716 13.5454 10 14.217 10 15.0454C10 15.8738 10.6716 16.5454 11.5 16.5454H12C12.2761 16.5454 12.5 16.7693 12.5 17.0454C12.5 17.3216 12.2761 17.5454 12 17.5454H11.5C10.1193 17.5454 9 16.4261 9 15.0454ZM14.5 13.0454C14.5 12.7693 14.7239 12.5454 15 12.5454H15.5C16.8807 12.5454 18 13.6647 18 15.0454C18 16.4261 16.8807 17.5454 15.5 17.5454H15C14.7239 17.5454 14.5 17.3216 14.5 17.0454C14.5 16.7693 14.7239 16.5454 15 16.5454H15.5C16.3284 16.5454 17 15.8738 17 15.0454C17 14.217 16.3284 13.5454 15.5 13.5454H15C14.7239 13.5454 14.5 13.3216 14.5 13.0454ZM11.5 14.5454C11.2239 14.5454 11 14.7693 11 15.0454C11 15.3216 11.2239 15.5454 11.5 15.5454H15.5C15.7761 15.5454 16 15.3216 16 15.0454C16 14.7693 15.7761 14.5454 15.5 14.5454H11.5Z" fill="currentColor"/>
</g>
</svg>
