<?xml version="1.0" encoding="UTF-8"?>
<svg width="18px" height="20px" viewBox="0 0 18 20" version="1.1" xmlns="http://www.w3.org/2000/svg"
    xmlns:xlink="http://www.w3.org/1999/xlink">
    <title>密码</title>
    <g id="登陆页" stroke="none" stroke-width="1" fill="none" fill-rule="evenodd">
        <g id="画板" transform="translate(-99.000000, -324.000000)" fill-rule="nonzero">
            <g id="密码" transform="translate(99.000000, 324.000000)">
                <path
                    d="M15,8.33393088 C15.013263,8.33393088 15.0264657,8.33367267 15.0396033,8.33316102 L16.1997374,8.33151837 C17.1932615,8.33151837 18,9.07899278 18,9.99878258 L18,9.99878258 L18,18.3327358 C18,19.2549381 17.1932615,20 16.1997374,20 L16.1997374,20 L1.80026264,20 C0.806738473,20 0,19.2525256 0,18.3327358 L0,18.3327358 L0,10.0011951 C0,9.07899278 0.806738473,8.33393088 1.80026264,8.33393088 L1.80026264,8.33393088 Z M8.99871067,11.2486388 C8.0051865,11.2486388 7.19844803,11.9961132 7.19844803,12.915903 C7.19844803,13.5032139 7.52789569,14.0201377 8.02598292,14.316228 L8.02598292,14.316228 L7.6524354,16.4567452 C7.6524354,16.8037885 7.95332679,17.0828796 8.3268743,17.0828796 L8.3268743,17.0828796 L9.67577599,17.0828796 C10.0492996,17.0828796 10.3502149,16.8013537 10.3502149,16.4567452 C10.1530668,15.2991227 9.97666737,14.316228 9.97666737,14.316228 C10.4695257,14.0201377 10.7989733,13.5032139 10.7989733,12.915903 C10.7989733,11.9937007 9.99223484,11.2486388 8.99871067,11.2486388 Z"
                    id="形状结合1" fill="#3484FF"></path>
                <path
                    d="M9.00128933,0 C12.2308696,0 14.8508357,2.42445565 14.8508357,5.41681047 L14.8508357,5.41681047 L14.85,7.395 L12.599,7.395 L12.599236,5.41681047 C12.599236,3.63855019 11.093941,2.18458258 9.1963653,2.08962725 L8.99871067,2.08469456 C7.00908367,2.08469456 5.39818539,3.57479603 5.39818539,5.41681047 L5.39818539,5.41681047 L5.398,7.395 L3.149,7.395 L3.14916432,5.41681047 C3.14916432,2.49570219 5.64337524,0.115772207 8.77131193,0.00409816509 Z"
                    id="形状结合2" fill="#A3CCFF"></path>
            </g>
        </g>
    </g>
</svg>