<?xml version="1.0" encoding="UTF-8"?>
<svg width="20px" height="17px" viewBox="0 0 20 17" version="1.1" xmlns="http://www.w3.org/2000/svg"
    xmlns:xlink="http://www.w3.org/1999/xlink">
    <title>组件-邮箱</title>
    <g id="登陆页" stroke="none" stroke-width="1" fill="none" fill-rule="evenodd">
        <g id="画板" transform="translate(-99.000000, -236.000000)" fill-rule="nonzero">
            <g id="组件-邮箱" transform="translate(99.000000, 236.000000)">
                <path
                    d="M10.4615385,10.1538462 C10.3076923,10.2307692 10.1538462,10.3076923 10,10.3076923 C9.84615385,10.3076923 9.61538462,10.2307692 9.53846154,10.1538462 L0,4.61538462 L0,14.3076923 C0,15.7692308 1.23076923,16.9230769 2.76923077,16.9230769 L17.1538462,16.9230769 C18.6923077,16.9230769 19.9230769,15.7692308 19.9230769,14.3076923 L19.9230769,4.61538462 L10.4615385,10.1538462 Z"
                    id="路径1" fill="#3484FF"></path>
                <path
                    d="M20,3.15384615 L20,2.69230769 C20,1.23076923 18.7692308,0 17.2307692,0 L2.76923077,0 C1.23076923,0 0,1.23076923 0,2.69230769 L0,3.15384615 L10,9.23076923 L20,3.15384615 L20,3.15384615 Z"
                    id="路径2" fill="#A3CCFF"></path>
            </g>
        </g>
    </g>
</svg>