<svg width="20" height="21" viewBox="0 0 20 21" fill="none" xmlns="http://www.w3.org/2000/svg">
<g id="&#233;&#133;&#141;&#231;&#189;&#174;-20PX">
<path id="Shape" d="M4.5 7.54541C4.22386 7.54541 4 7.76927 4 8.04541C4 8.32155 4.22386 8.54541 4.5 8.54541H8.5C8.77614 8.54541 9 8.32155 9 8.04541C9 7.76927 8.77614 7.54541 8.5 7.54541H4.5ZM9 10.0454C9 9.76927 9.22386 9.54541 9.5 9.54541H13.5C13.7761 9.54541 14 9.76927 14 10.0454C14 10.3216 13.7761 10.5454 13.5 10.5454H9.5C9.22386 10.5454 9 10.3216 9 10.0454ZM12.5 11.5454C12.2239 11.5454 12 11.7693 12 12.0454C12 12.3216 12.2239 12.5454 12.5 12.5454H15.5C15.7761 12.5454 16 12.3216 16 12.0454C16 11.7693 15.7761 11.5454 15.5 11.5454H12.5ZM4.5 4.54541C3.11929 4.54541 2 5.6647 2 7.04541V14.0454C2 15.4261 3.11929 16.5454 4.5 16.5454H15.5C16.8807 16.5454 18 15.4261 18 14.0454V7.04541C18 5.6647 16.8807 4.54541 15.5 4.54541H4.5ZM3 7.04541C3 6.21698 3.67157 5.54541 4.5 5.54541H7V6.54541H8V5.54541H12V8.54541H13V5.54541H15.5C16.3284 5.54541 17 6.21698 17 7.04541V14.0454C17 14.8738 16.3284 15.5454 15.5 15.5454H13V13.5454H12V15.5454H8V9.54541H7V15.5454H4.5C3.67157 15.5454 3 14.8738 3 14.0454V7.04541Z" fill="currentColor"/>
</g>
</svg>
