<svg width="20" height="21" viewBox="0 0 20 21" fill="none" xmlns="http://www.w3.org/2000/svg">
<g id="&#231;&#173;&#190;&#229;&#136;&#176;-20PX">
<path id="Shape" d="M14.5 3.54541C15.8807 3.54541 17 4.6647 17 6.04541V10.1451C16.6832 9.98318 16.3486 9.85105 16 9.75244V7.54541H4V15.0454C4 15.8738 4.67157 16.5454 5.5 16.5454H9.20703C9.30564 16.8941 9.43777 17.2286 9.59971 17.5454H5.5C4.11929 17.5454 3 16.4261 3 15.0454V6.04541C3 4.6647 4.11929 3.54541 5.5 3.54541H14.5ZM14.5 4.54541H5.5C4.67157 4.54541 4 5.21698 4 6.04541V6.54541H16V6.04541C16 5.21698 15.3284 4.54541 14.5 4.54541ZM19 15.0454C19 17.5307 16.9853 19.5454 14.5 19.5454C12.0147 19.5454 10 17.5307 10 15.0454C10 12.5601 12.0147 10.5454 14.5 10.5454C16.9853 10.5454 19 12.5601 19 15.0454ZM16.8536 13.1919C16.6583 12.9966 16.3417 12.9966 16.1464 13.1919L13.5 15.8383L12.8536 15.1919C12.6583 14.9966 12.3417 14.9966 12.1464 15.1919C11.9512 15.3871 11.9512 15.7037 12.1464 15.899L13.1464 16.899C13.3417 17.0942 13.6583 17.0942 13.8536 16.899L16.8536 13.899C17.0488 13.7037 17.0488 13.3871 16.8536 13.1919Z" fill="currentColor"/>
</g>
</svg>
