<svg width="24" height="24" viewBox="0 0 16 17" fill="none" xmlns="http://www.w3.org/2000/svg">
  <g id="Settings">
    <path id="Shape"
      d="M7.99994 6.90918C6.89537 6.90918 5.99994 7.80461 5.99994 8.90918C5.99994 10.0137 6.89537 10.9092 7.99994 10.9092C9.10451 10.9092 9.99994 10.0137 9.99994 8.90918C9.99994 7.80461 9.10451 6.90918 7.99994 6.90918ZM6.99994 8.90918C6.99994 8.35689 7.44765 7.90918 7.99994 7.90918C8.55222 7.90918 8.99994 8.35689 8.99994 8.90918C8.99994 9.46146 8.55222 9.90918 7.99994 9.90918C7.44765 9.90918 6.99994 9.46146 6.99994 8.90918ZM10.618 5.30751C10.233 5.37743 9.86392 5.12331 9.7937 4.73992L9.53397 3.32414C9.50816 3.18345 9.39961 3.07219 9.25912 3.04243C8.84818 2.95539 8.42685 2.91113 8 2.91113C7.57289 2.91113 7.1513 2.95545 6.74013 3.04259C6.5996 3.07238 6.49104 3.1837 6.46529 3.32445L6.20629 4.73998C6.1994 4.77762 6.18942 4.81469 6.17647 4.85078C6.04476 5.21777 5.6392 5.40895 5.27062 5.27781L3.91115 4.79381C3.77603 4.7457 3.62511 4.78349 3.52891 4.88951C2.96005 5.51647 2.52892 6.25626 2.2672 7.0622C2.22305 7.19817 2.26562 7.34723 2.37502 7.43971L3.47694 8.37124C3.50626 8.39603 3.53352 8.42317 3.55843 8.45238C3.81177 8.74945 3.77528 9.19476 3.47693 9.44701L2.37502 10.3785C2.26562 10.471 2.22305 10.6201 2.2672 10.756C2.52892 11.562 2.96005 12.3018 3.52891 12.9287C3.62511 13.0348 3.77603 13.0725 3.91115 13.0244L5.27068 12.5404C5.30687 12.5275 5.3441 12.5176 5.38196 12.5107C5.76701 12.4408 6.13608 12.6949 6.2063 13.0783L6.46529 14.4938C6.49104 14.6345 6.5996 14.7459 6.74013 14.7756C7.1513 14.8628 7.57289 14.9071 8 14.9071C8.42685 14.9071 8.84818 14.8628 9.25912 14.7758C9.39961 14.746 9.50816 14.6348 9.53397 14.4941L9.79368 13.0784C9.8006 13.0406 9.81058 13.0035 9.82353 12.9675C9.95524 12.6005 10.3608 12.4093 10.7294 12.5404L12.0888 13.0244C12.224 13.0725 12.3749 13.0348 12.4711 12.9287C13.04 12.3018 13.4711 11.562 13.7328 10.756C13.777 10.6201 13.7344 10.471 13.625 10.3785L12.5231 9.447C12.4937 9.42221 12.4665 9.39506 12.4416 9.36585C12.1882 9.06878 12.2247 8.62347 12.5231 8.37123L13.625 7.43971C13.7344 7.34723 13.777 7.19817 13.7328 7.0622C13.4711 6.25626 13.04 5.51647 12.4711 4.88951C12.3749 4.78349 12.224 4.7457 12.0888 4.79381L10.7293 5.27783C10.6931 5.2907 10.6559 5.30064 10.618 5.30751ZM3.99863 5.88644L4.93522 6.21988C5.82017 6.53477 6.79872 6.07733 7.11769 5.18858C7.14903 5.10125 7.17324 5.01128 7.18996 4.91996L7.36738 3.95031C7.5757 3.9243 7.78684 3.91113 8 3.91113C8.213 3.91113 8.42397 3.92428 8.63214 3.95025L8.81011 4.92035C8.98053 5.84998 9.87266 6.45921 10.7967 6.29142C10.8877 6.27489 10.9775 6.25094 11.0647 6.21991L12.0014 5.88644C12.2564 6.22002 12.4684 6.58394 12.6319 6.96981L11.8774 7.60758C11.1566 8.21705 11.0675 9.29567 11.6807 10.0147C11.7408 10.0853 11.8067 10.1508 11.8775 10.2107L12.6319 10.8484C12.4684 11.2343 12.2564 11.5982 12.0014 11.9318L11.0646 11.5983C10.1797 11.2834 9.20128 11.7409 8.88231 12.6297C8.85096 12.717 8.82677 12.807 8.81004 12.8983L8.63214 13.868C8.42397 13.894 8.213 13.9071 8 13.9071C7.78684 13.9071 7.5757 13.8939 7.36738 13.8679L7.18994 12.8982C7.01965 11.9684 6.12743 11.359 5.2033 11.5268C5.11227 11.5433 5.0225 11.5673 4.93528 11.5983L3.99863 11.9318C3.74357 11.5982 3.53161 11.2343 3.36814 10.8484L4.12257 10.2107C4.84343 9.60119 4.93254 8.52257 4.31933 7.8035C4.25917 7.73296 4.19332 7.6674 4.12254 7.60756L3.36814 6.96981C3.53161 6.58394 3.74357 6.22002 3.99863 5.88644Z"
      fill="currentColor" />
  </g>
</svg>