<svg width="20" height="21" viewBox="0 0 20 21" fill="none" xmlns="http://www.w3.org/2000/svg">
<g id="&#229;&#136;&#160;&#233;&#153;&#164;-20PX">
<path id="Shape" d="M11.5 4.54541C11.5 3.71698 10.8284 3.04541 10 3.04541C9.17157 3.04541 8.5 3.71698 8.5 4.54541H7.5C7.5 3.1647 8.61929 2.04541 10 2.04541C11.3807 2.04541 12.5 3.1647 12.5 4.54541H17C17.2761 4.54541 17.5 4.76927 17.5 5.04541C17.5 5.32155 17.2761 5.54541 17 5.54541H16.446L15.1499 16.7747C15.0335 17.7838 14.179 18.5454 13.1631 18.5454H6.83688C5.821 18.5454 4.9665 17.7838 4.85006 16.7747L3.553 5.54541H3C2.75454 5.54541 2.55039 5.36854 2.50806 5.13529L2.5 5.04541C2.5 4.76927 2.72386 4.54541 3 4.54541H11.5ZM15.438 5.54541H4.561L5.84347 16.66C5.90169 17.1646 6.32894 17.5454 6.83688 17.5454H13.1631C13.6711 17.5454 14.0983 17.1646 14.1565 16.66L15.438 5.54541ZM8.5 8.04541C8.74546 8.04541 8.94961 8.20018 8.99194 8.40427L9 8.48291V14.6079C9 14.8495 8.77614 15.0454 8.5 15.0454C8.25454 15.0454 8.05039 14.8906 8.00806 14.6866L8 14.6079V8.48291C8 8.24129 8.22386 8.04541 8.5 8.04541ZM11.5 8.04541C11.7455 8.04541 11.9496 8.20018 11.9919 8.40427L12 8.48291V14.6079C12 14.8495 11.7761 15.0454 11.5 15.0454C11.2545 15.0454 11.0504 14.8906 11.0081 14.6866L11 14.6079V8.48291C11 8.24129 11.2239 8.04541 11.5 8.04541Z" fill="currentColor"/>
</g>
</svg>
