<svg width="20" height="21" viewBox="0 0 20 21" fill="none" xmlns="http://www.w3.org/2000/svg">
<g id="&#230;&#152;&#190;&#233;&#154;&#144;&#229;&#136;&#151;-20PX">
<path id="Shape" d="M4.5 17.5453C3.7203 17.5453 3.07955 16.9505 3.00687 16.1898L3 16.0453V5.04535C3 4.26565 3.59489 3.6249 4.35554 3.55222L4.5 3.54535H9C9.7797 3.54535 10.4204 4.14024 10.4931 4.90089L10.5 5.04535V5.29978L12.6886 3.03053C13.2276 2.47134 14.0959 2.42103 14.6956 2.89241L14.8118 2.99365L17.5694 5.7183C18.1219 6.26419 18.1614 7.13304 17.68 7.72948L17.5767 7.84496L15.266 10.0448L15.5 10.0453C16.2797 10.0453 16.9204 10.6402 16.9931 11.4009L17 11.5453V16.0453C17 16.825 16.4051 17.4658 15.6445 17.5385L15.5 17.5453H4.5ZM9.5 11.0453H4V16.0453C4 16.2601 4.13542 16.4433 4.32553 16.5141L4.41012 16.5373L4.5 16.5453H9.5V11.0453ZM15.5 11.0453H10.5V16.5453H15.5C15.7455 16.5453 15.9496 16.3685 15.9919 16.1352L16 16.0453V11.5453C16 11.2999 15.8231 11.0957 15.5899 11.0534L15.5 11.0453ZM10.5 8.25478V10.0448H12.29L10.5 8.25478ZM9 4.54535H4.5C4.25454 4.54535 4.05039 4.72222 4.00806 4.95547L4 5.04535V10.0453H9.5V5.04535C9.5 4.83057 9.36458 4.64742 9.17447 4.57663L9.08988 4.55341L9 4.54535ZM14.1222 3.718C13.9396 3.54187 13.6692 3.5269 13.4768 3.66539L13.4086 3.7245L10.7926 6.43864C10.6271 6.61035 10.6086 6.87036 10.7356 7.06179L10.799 7.13918L13.4147 9.7549C13.5826 9.92281 13.8409 9.9467 14.0345 9.82466L14.1131 9.76341L16.8708 7.13674C17.0433 6.96214 17.061 6.6926 16.9248 6.49854L16.8665 6.42964L14.1222 3.718Z" fill="currentColor"/>
</g>
</svg>
