<svg width="20" height="21" viewBox="0 0 20 21" fill="none" xmlns="http://www.w3.org/2000/svg">
<g id="&#230;&#182;&#136;&#230;&#129;&#175;-20PX">
<path id="Shape" d="M9.99766 2.54541C13.1466 2.54541 15.7416 4.88029 15.9821 7.90082L15.9955 8.12303L16 8.34755L15.999 11.9434L16.9244 14.1656C16.947 14.2197 16.9647 14.2756 16.9774 14.3326L16.9926 14.4187L17.0013 14.55C17.0013 14.998 16.7048 15.3841 16.2521 15.5131L16.1358 15.5399L16.0013 15.55L12.4996 15.5494L12.4946 15.7107C12.4095 17.0144 11.3252 18.0454 10 18.0454C8.67453 18.0454 7.58998 17.0139 7.50533 15.7098L7.49962 15.5494L3.99891 15.55C3.91096 15.55 3.82358 15.5384 3.73902 15.5156L3.61456 15.4732C3.20378 15.3021 2.96181 14.8847 3.01221 14.4211L3.0333 14.2937L3.07572 14.1656L3.99902 11.9464L4.0001 8.33822L4.0044 8.11365C4.12702 4.99656 6.77104 2.54541 9.99766 2.54541ZM11.4996 15.5494H8.49962L8.50697 15.6908C8.57552 16.4035 9.14275 16.9704 9.85556 17.0385L10 17.0454C10.7797 17.0454 11.4205 16.4505 11.4931 15.6899L11.4996 15.5494ZM9.99766 3.54541C7.37511 3.54541 5.22717 5.46913 5.01715 7.93039L5.00393 8.14264L5.00002 8.34755V12.0454L4.96161 12.2376L3.9989 14.55L15.9566 14.552L16.0019 14.5499L15.0384 12.2376L15 12.0454L15.0001 8.35782L14.996 8.15372C14.8909 5.58031 12.6947 3.54541 9.99766 3.54541Z" fill="currentColor"/>
</g>
</svg>
