<svg width="20" height="21" viewBox="0 0 20 21" fill="none" xmlns="http://www.w3.org/2000/svg">
<g id="&#230;&#150;&#176;&#229;&#162;&#158;-20PX">
<path id="Shape" d="M10 3.54541C10 3.26927 9.77614 3.04541 9.5 3.04541C9.22386 3.04541 9 3.26927 9 3.54541V9.54539H3C2.72386 9.54539 2.5 9.76925 2.5 10.0454C2.5 10.3215 2.72386 10.5454 3 10.5454H9V16.5454C9 16.8216 9.22386 17.0454 9.5 17.0454C9.77614 17.0454 10 16.8216 10 16.5454V10.5454H16C16.2761 10.5454 16.5 10.3215 16.5 10.0454C16.5 9.76925 16.2761 9.54539 16 9.54539H10V3.54541Z" fill="currentColor"/>
</g>
</svg>
