<svg width="20" height="21" viewBox="0 0 20 21" fill="none" xmlns="http://www.w3.org/2000/svg">
<g id="&#232;&#175;&#173;&#232;&#168;&#128;-20PX">
<g id="&#230;&#150;&#135;&#229;&#173;&#151;&#229;&#136;&#135;&#230;&#141;&#162; 1">
<path id="Vector" d="M12.8165 7.72893H13.0562C13.0861 7.72893 13.1161 7.75889 13.1461 7.75889C13.176 7.78886 13.206 7.78886 13.236 7.81882L13.2659 7.84878C13.2659 7.84878 13.2959 7.87874 13.2959 7.90871L13.3258 7.93867V7.96863L13.3558 7.99859L13.3858 8.02856L17.8202 17.7664C17.9101 17.9462 17.8802 18.1259 17.7903 18.2757C17.7004 18.4256 17.5206 18.5454 17.3408 18.5454C17.161 18.5454 16.9813 18.4256 16.8614 18.2757L16.8315 18.2458L15.6929 15.7589H10.0599L8.92135 18.2458C8.83146 18.4256 8.68165 18.5154 8.53184 18.5454H8.47191C8.29214 18.5454 8.11236 18.4555 8.02247 18.2757C7.93258 18.1259 7.90262 17.9462 7.96255 17.7963L7.99251 17.7364L12.427 7.99859C12.4569 7.93867 12.4869 7.87874 12.5468 7.81882L12.5768 7.78886L12.6067 7.75889L12.6667 7.72893H12.6966L12.7566 7.69897H12.8464L12.8165 7.72893V7.72893ZM12.8464 9.58661L10.5393 14.6802H15.1236L12.8464 9.58661V9.58661ZM7.00375 2.54541C7.30337 2.54541 7.57303 2.78511 7.603 3.08474V3.74391C7.603 3.77387 7.63296 3.77387 7.63296 3.77387H11.2285C11.3783 3.77387 11.5281 3.8338 11.6479 3.98361L11.6779 4.01357L11.7079 4.04354C11.7978 4.22331 11.7978 4.43305 11.7079 4.58286C11.618 4.73268 11.4682 4.85253 11.2884 4.85253H10.1798V4.88249C9.94008 6.74017 9.25094 8.68773 7.99251 10.1859L7.87266 10.3057L7.78277 10.4256L7.8427 10.4855C8.20225 10.7851 8.5618 11.0248 8.95131 11.2645L9.16105 11.3844L9.37079 11.5042C9.49064 11.5641 9.58052 11.684 9.64045 11.8338C9.67041 11.9836 9.67041 12.1334 9.61049 12.2533C9.5206 12.4331 9.34082 12.5529 9.13109 12.5529C9.0412 12.5529 8.95131 12.5229 8.89139 12.493C8.26217 12.1634 7.66292 11.7439 7.1236 11.2945L7.03371 11.2345L6.94382 11.2046C5.98502 11.9836 5.47566 12.3731 4.51685 12.7626L4.36704 12.8226L4.21723 12.8825C3.82772 13.0323 3.46816 13.1222 3.10861 13.2121L2.92884 13.242C2.77903 13.272 2.68914 13.272 2.59925 13.302H2.53933C2.26966 13.302 2.02996 13.0623 2 12.7926C2 12.5229 2.17978 12.2832 2.44944 12.2233L2.59925 12.1934C2.65918 12.1934 2.74906 12.1634 2.86891 12.1334C3.13858 12.0735 3.46816 11.9836 3.79775 11.8638C4.72659 11.5342 5.23596 11.1746 6.13483 10.4555L6.16479 10.4256L6.07491 10.3057C4.75655 8.83755 4.06742 6.91994 3.79775 5.0323L3.76779 4.85253H2.80899C2.65918 4.85253 2.50936 4.7926 2.38951 4.64279L2.35955 4.61283L2.32959 4.58286C2.2397 4.40309 2.2397 4.19335 2.32959 4.04354C2.41948 3.89372 2.56929 3.80384 2.74906 3.77387H6.40449V3.08474C6.40449 2.81507 6.64419 2.57537 6.91386 2.54541H7.00375ZM9.13109 4.88249H4.84644L4.8764 5.0323C5.14607 6.7102 5.77528 8.35814 6.8839 9.61657L6.97378 9.73642L7.06367 9.61657C8.17228 8.35814 8.8015 6.7102 9.07116 5.0323L9.13109 4.88249V4.88249Z" fill="currentColor"/>
</g>
</g>
</svg>
