<svg width="20" height="21" viewBox="0 0 20 21" fill="none" xmlns="http://www.w3.org/2000/svg">
<g id="&#228;&#184;&#187;&#233;&#162;&#152;-20PX">
<path id="Shape" d="M9.75003 7.04541C10.1642 7.04541 10.5 6.70962 10.5 6.29541C10.5 5.8812 10.1642 5.54541 9.75003 5.54541C9.33582 5.54541 9.00003 5.8812 9.00003 6.29541C9.00003 6.70962 9.33582 7.04541 9.75003 7.04541ZM12.75 8.04541C13.1642 8.04541 13.5 7.70962 13.5 7.29541C13.5 6.8812 13.1642 6.54541 12.75 6.54541C12.3358 6.54541 12 6.8812 12 7.29541C12 7.70962 12.3358 8.04541 12.75 8.04541ZM15.25 9.54541C15.25 9.95962 14.9142 10.2954 14.5 10.2954C14.0858 10.2954 13.75 9.95962 13.75 9.54541C13.75 9.1312 14.0858 8.79541 14.5 8.79541C14.9142 8.79541 15.25 9.1312 15.25 9.54541ZM14.5 13.2954C14.9142 13.2954 15.25 12.9596 15.25 12.5454C15.25 12.1312 14.9142 11.7954 14.5 11.7954C14.0858 11.7954 13.75 12.1312 13.75 12.5454C13.75 12.9596 14.0858 13.2954 14.5 13.2954ZM13.25 14.5454C13.25 14.9596 12.9142 15.2954 12.5 15.2954C12.0858 15.2954 11.75 14.9596 11.75 14.5454C11.75 14.1312 12.0858 13.7954 12.5 13.7954C12.9142 13.7954 13.25 14.1312 13.25 14.5454ZM13.6972 3.5371C10.9426 2.12204 8.1432 2.25782 5.77007 3.71177C4.55909 4.45371 3.25331 6.01466 2.51605 7.6044C2.14542 8.40357 1.89915 9.25033 1.90238 10.0386C1.90566 10.8395 2.16983 11.6041 2.84039 12.1507C3.45058 12.648 3.98165 12.8984 4.49574 12.9238C5.01375 12.9495 5.41804 12.7396 5.73429 12.553C5.80382 12.512 5.86891 12.4725 5.93113 12.4347C6.17332 12.2875 6.37205 12.1668 6.62049 12.088C6.90191 11.9988 7.2582 11.9659 7.77579 12.1241C7.96661 12.1824 8.08161 12.2689 8.16212 12.3683C8.24792 12.4743 8.31662 12.6228 8.36788 12.834C8.41955 13.047 8.44767 13.2981 8.46868 13.5945C8.47651 13.7049 8.48379 13.8309 8.49142 13.963C8.50252 14.1552 8.51437 14.3603 8.52974 14.5491C8.58435 15.2198 8.69971 15.9855 9.10362 16.6811C9.51764 17.3942 10.2047 17.9844 11.307 18.3612C12.9093 18.909 14.3731 18.4645 15.5126 17.5623C16.6391 16.6704 17.4691 15.3215 17.8842 13.9726C19.1991 9.69918 17.6728 5.57935 13.6972 3.5371ZM6.29249 4.56446C8.35686 3.29967 10.7844 3.165 13.2403 4.4266C16.7473 6.22816 18.1135 9.82702 16.9284 13.6786C16.5624 14.8681 15.8338 16.0325 14.8919 16.7783C13.963 17.5138 12.8486 17.8314 11.6305 17.415C10.7269 17.1061 10.2467 16.6583 9.96842 16.179C9.68001 15.6823 9.57799 15.101 9.52644 14.4679C9.51101 14.2784 9.50132 14.1075 9.49147 13.9338C9.48399 13.8018 9.47642 13.6683 9.46618 13.5238C9.44424 13.2144 9.41175 12.8953 9.33968 12.5983C9.26719 12.2995 9.14902 11.9981 8.93935 11.7391C8.72439 11.4736 8.43532 11.28 8.06801 11.1677C7.36648 10.9534 6.80266 10.9813 6.31839 11.1348C5.94331 11.2536 5.62016 11.4515 5.37179 11.6036C5.31992 11.6353 5.2713 11.6651 5.22616 11.6917C4.94094 11.86 4.75357 11.9354 4.54514 11.9251C4.33279 11.9145 4.00262 11.8079 3.47218 11.3755C3.0866 11.0613 2.90473 10.6123 2.90237 10.0345C2.89995 9.44406 3.08843 8.74706 3.42324 8.02512C4.09686 6.57261 5.28471 5.1819 6.29249 4.56446Z" fill="currentColor"/>
</g>
</svg>
